<svg xmlns="http://www.w3.org/2000/svg" width="134" height="39" viewBox="0 0 134 39">
	 viewBox="0 0 134 39" style="enable-background:new 0 0 134 39;" xml:space="preserve"&gt;
<style type="text/css">
	.st0{fill:url(#XMLID_2_);}
	.st1{fill:url(#XMLID_5_);}
	.st2{fill:url(#XMLID_6_);}
	.st3{fill:url(#XMLID_7_);}
	.st4{fill:url(#XMLID_8_);}
	.st5{fill:url(#XMLID_11_);}
	.st6{fill:url(#XMLID_12_);}
	.st7{opacity:0.4;fill:url(#XMLID_13_);}
	.st8{opacity:0.3;fill:#8AC33F;}
	.st9{filter:url(#Adobe_OpacityMaskFilter);}
	.st10{filter:url(#Adobe_OpacityMaskFilter_1_);}
	.st11{mask:url(#XMLID_14_);fill:url(#XMLID_15_);}
	.st12{opacity:0.6;fill:url(#XMLID_18_);}
	.st13{fill:url(#XMLID_19_);}
	.st14{fill:url(#XMLID_22_);}
	.st15{fill:url(#XMLID_23_);}
	.st16{opacity:0.4;fill:url(#XMLID_24_);}
	.st17{opacity:0.3;fill:url(#XMLID_25_);}
	.st18{fill:url(#XMLID_28_);}
	.st19{fill:url(#XMLID_29_);}
	.st20{opacity:0.4;fill:url(#XMLID_30_);}
	.st21{opacity:0.3;fill:url(#XMLID_31_);}
	.st22{filter:url(#Adobe_OpacityMaskFilter_2_);}
	.st23{filter:url(#Adobe_OpacityMaskFilter_3_);}
	.st24{mask:url(#XMLID_34_);fill:url(#XMLID_35_);}
	.st25{opacity:0.6;fill:url(#XMLID_36_);}
	.st26{fill:url(#XMLID_37_);}
	.st27{fill:url(#XMLID_40_);}
	.st28{opacity:0.4;fill:url(#XMLID_41_);}
	.st29{opacity:0.3;fill:url(#XMLID_42_);}
	.st30{fill:url(#XMLID_43_);}
	.st31{fill:url(#XMLID_44_);}
	.st32{opacity:0.4;fill:url(#XMLID_45_);}
	.st33{opacity:0.3;fill:url(#XMLID_46_);}
	.st34{fill:url(#XMLID_47_);}
	.st35{fill:url(#XMLID_50_);}
	.st36{opacity:0.4;fill:url(#XMLID_51_);}
	.st37{opacity:0.3;fill:url(#XMLID_52_);}
	.st38{fill:url(#XMLID_53_);}
	.st39{fill:url(#XMLID_54_);}
	.st40{opacity:0.4;fill:url(#XMLID_55_);}
	.st41{opacity:0.3;fill:url(#XMLID_56_);}
	.st42{fill:url(#XMLID_57_);}
	.st43{fill:url(#XMLID_58_);}
	.st44{opacity:0.4;fill:url(#XMLID_59_);}
	.st45{opacity:0.3;fill:url(#XMLID_60_);}
	.st46{opacity:0.4;fill:url(#XMLID_63_);}
	.st47{opacity:0.3;fill:url(#XMLID_64_);}
	.st48{filter:url(#Adobe_OpacityMaskFilter_4_);}
	.st49{filter:url(#Adobe_OpacityMaskFilter_5_);}
	.st50{mask:url(#XMLID_65_);fill:url(#XMLID_66_);}
	.st51{opacity:0.8;fill:url(#XMLID_67_);}
	.st52{fill:#FFFFFF;}
	.st53{filter:url(#Adobe_OpacityMaskFilter_6_);}
	.st54{filter:url(#Adobe_OpacityMaskFilter_7_);}
	.st55{mask:url(#XMLID_68_);fill:url(#XMLID_69_);}
	.st56{opacity:0.6;fill:url(#XMLID_70_);}
	.st57{fill:url(#XMLID_71_);}
	.st58{opacity:0.3;fill:url(#XMLID_72_);}
	.st59{fill:url(#XMLID_73_);}
	.st60{opacity:0.4;fill:url(#XMLID_74_);}
	.st61{fill:url(#XMLID_77_);}
	.st62{opacity:0.4;fill:url(#XMLID_78_);}
	.st63{opacity:0.3;fill:url(#XMLID_79_);}
	.st64{filter:url(#Adobe_OpacityMaskFilter_8_);}
	.st65{filter:url(#Adobe_OpacityMaskFilter_9_);}
	.st66{mask:url(#XMLID_80_);fill:url(#XMLID_81_);}
	.st67{opacity:0.6;fill:url(#XMLID_84_);}
	.st68{opacity:0.4;fill:url(#XMLID_85_);}
	.st69{fill:url(#XMLID_86_);}
	.st70{fill:url(#XMLID_87_);}
	.st71{opacity:0.4;fill:url(#XMLID_88_);}
	.st72{filter:url(#Adobe_OpacityMaskFilter_10_);}
	.st73{filter:url(#Adobe_OpacityMaskFilter_11_);}
	.st74{mask:url(#XMLID_89_);fill:url(#XMLID_90_);}
	.st75{opacity:0.6;fill:url(#XMLID_91_);}
	.st76{opacity:0.35;fill:url(#XMLID_92_);}
	.st77{filter:url(#Adobe_OpacityMaskFilter_12_);}
	.st78{filter:url(#Adobe_OpacityMaskFilter_13_);}
	.st79{mask:url(#XMLID_93_);fill:url(#XMLID_94_);}
	.st80{opacity:0.6;fill:url(#XMLID_95_);}
	.st81{filter:url(#Adobe_OpacityMaskFilter_14_);}
	.st82{filter:url(#Adobe_OpacityMaskFilter_15_);}
	.st83{mask:url(#XMLID_96_);fill:url(#XMLID_97_);}
	.st84{opacity:0.6;fill:url(#XMLID_98_);}
	.st85{filter:url(#Adobe_OpacityMaskFilter_16_);}
	.st86{filter:url(#Adobe_OpacityMaskFilter_17_);}
	.st87{mask:url(#XMLID_99_);fill:url(#XMLID_100_);}
	.st88{opacity:0.6;fill:url(#XMLID_101_);}
	.st89{filter:url(#Adobe_OpacityMaskFilter_18_);}
	.st90{filter:url(#Adobe_OpacityMaskFilter_19_);}
	.st91{mask:url(#XMLID_102_);fill:url(#XMLID_103_);}
	.st92{opacity:0.6;fill:url(#XMLID_104_);}
	.st93{filter:url(#Adobe_OpacityMaskFilter_20_);}
	.st94{filter:url(#Adobe_OpacityMaskFilter_21_);}
	.st95{mask:url(#XMLID_105_);fill:url(#XMLID_106_);}
	.st96{opacity:0.6;fill:url(#XMLID_107_);}
	.st97{filter:url(#Adobe_OpacityMaskFilter_22_);}
	.st98{filter:url(#Adobe_OpacityMaskFilter_23_);}
	.st99{mask:url(#XMLID_108_);fill:url(#XMLID_109_);}
	.st100{opacity:0.6;fill:url(#XMLID_110_);}
	.st101{filter:url(#Adobe_OpacityMaskFilter_24_);}
	.st102{filter:url(#Adobe_OpacityMaskFilter_25_);}
	.st103{mask:url(#XMLID_111_);fill:url(#XMLID_112_);}
	.st104{opacity:0.6;fill:url(#XMLID_113_);}
</style>
<g id="XMLID_1604_">
	<linearGradient id="XMLID_2_" gradientUnits="userSpaceOnUse" x1="8.785" y1="9.1494" x2="5.7064" y2="14.5961">
		<stop offset="0" style="stop-color:#F7DB31"/>
		<stop offset="0.1991" style="stop-color:#F4B840"/>
		<stop offset="0.6344" style="stop-color:#EB4F58"/>
		<stop offset="1" style="stop-color:#8330C5"/>
	</linearGradient>
	<path id="XMLID_1606_" class="st0" d="M9.1,11c-0.2,0.8-0.8,1.7-1.7,1.8c-0.7,0.1-1.2-0.5-1.3-1.1c0,0,0,0,0,0c0-0.1,0-0.1,0-0.2   c0,0,0,0,0,0c0-0.2,0.1-0.4,0.3-0.6c0.1-0.1,0.2-0.2,0.4-0.3c0,0,0,0,0,0c0.2-0.1,0.5-0.1,0.8-0.1c1,0,1.3-1,1.3-1.3c0,0,0,0,0,0   c0,0,0,0,0,0c0,0,0,0,0,0c0,0,0,0,0,0s0,0,0,0c0,0,0,0,0,0c0,0,0,0.1,0,0.1C8.9,9.5,9,9.6,9,9.7C9.1,10.1,9.2,10.6,9.1,11z"/>
	<linearGradient id="XMLID_5_" gradientUnits="userSpaceOnUse" x1="9.3927" y1="8.2648" x2="5.9155" y2="14.2968">
		<stop offset="0" style="stop-color:#F7DB31"/>
		<stop offset="0.1991" style="stop-color:#F4B840"/>
		<stop offset="0.6344" style="stop-color:#EB4F58"/>
		<stop offset="1" style="stop-color:#8330C5"/>
	</linearGradient>
	<path id="XMLID_1605_" class="st1" d="M9.1,11c-0.2,0.8-0.8,1.7-1.7,1.8c-0.7,0.1-1.2-0.5-1.3-1.1c0,0,0,0,0,0c0-0.1,0-0.1,0-0.2   c0.2,0.3,0.6,0.6,1.4,0.4c1.7-0.4,1.4-2.4,1.3-2.7c0,0,0,0,0,0c0,0,0,0.1,0,0.1C8.9,9.5,9,9.6,9,9.7C9.1,10.1,9.2,10.6,9.1,11z"/>
</g>
<g id="XMLID_1530_">
	<linearGradient id="XMLID_6_" gradientUnits="userSpaceOnUse" x1="8.1058" y1="6.7745" x2="8.1115" y2="6.773">
		<stop offset="0" style="stop-color:#F7DB31"/>
		<stop offset="0.1991" style="stop-color:#F4B840"/>
		<stop offset="0.6344" style="stop-color:#EB4F58"/>
		<stop offset="1" style="stop-color:#8330C5"/>
	</linearGradient>
	<polygon id="XMLID_1603_" class="st2" points="8.1,6.8 8.1,6.8 8.1,6.8 8.1,6.8  "/>
	<linearGradient id="XMLID_7_" gradientUnits="userSpaceOnUse" x1="8.2097" y1="7.4424" x2="20.7718" y2="3.0236">
		<stop offset="0" style="stop-color:#F7DB31"/>
		<stop offset="0.1991" style="stop-color:#F4B840"/>
		<stop offset="0.6344" style="stop-color:#EB4F58"/>
		<stop offset="1" style="stop-color:#8330C5"/>
	</linearGradient>
	<path id="XMLID_1587_" class="st3" d="M16.9,5.9c-0.8,1.1-2,1.8-3.4,1.3c-1.1-0.4-1.9-1.3-3-1.6c-1.1-0.4-2.4,1-2.5,1.1v0   c0,0,0,0,0,0c0,0,0,0,0,0c0.1-0.2,0.2-0.3,0.3-0.5c1.8-2.8,3.3-2.1,5.7-1.6c2.4,0.5,3.2-1.4,3.3-1.6c0,0,0,0,0,0c0,0,0,0,0,0   C17.8,4,17.5,5.1,16.9,5.9z"/>
	<linearGradient id="XMLID_8_" gradientUnits="userSpaceOnUse" x1="8.1042" y1="6.7772" x2="8.1107" y2="6.7717">
		<stop offset="0" style="stop-color:#F7DB31"/>
		<stop offset="0.1991" style="stop-color:#F4B840"/>
		<stop offset="0.6344" style="stop-color:#EB4F58"/>
		<stop offset="1" style="stop-color:#8330C5"/>
	</linearGradient>
	<polygon id="XMLID_1585_" class="st4" points="8.1,6.8 8.1,6.8 8.1,6.8 8.1,6.8  "/>
	<linearGradient id="XMLID_11_" gradientUnits="userSpaceOnUse" x1="8.1181" y1="7.6786" x2="19.1501" y2="3.798">
		<stop offset="0" style="stop-color:#F7DB31"/>
		<stop offset="0.1991" style="stop-color:#F4B840"/>
		<stop offset="0.6344" style="stop-color:#EB4F58"/>
		<stop offset="1" style="stop-color:#8330C5"/>
	</linearGradient>
	<path id="XMLID_1543_" class="st5" d="M16.9,5.9c-0.8,1.1-2,1.8-3.4,1.3c-1.1-0.4-1.9-1.3-3-1.6c-1.1-0.4-2.4,1-2.5,1.1v0   c0,0,0,0,0,0c0,0,0,0,0,0c0.2-0.3,1.5-2.2,3.4-2.2c0,0-0.6,0.1-0.9,0.4c0.1,0,0.9-0.4,2.5,0.3c1.6,0.7,2.5-0.1,2.6-0.1   c0,0-0.7,0.7-1.9,0.6c0,0,3.1,1.3,3.7-2.7c0,0,0,0,0,0C17.8,4,17.5,5.1,16.9,5.9z"/>
	<linearGradient id="XMLID_12_" gradientUnits="userSpaceOnUse" x1="8.1066" y1="6.7769" x2="8.1103" y2="6.7705">
		<stop offset="0" style="stop-color:#F4BA3A"/>
		<stop offset="1" style="stop-color:#F19943"/>
	</linearGradient>
	<polygon id="XMLID_1541_" class="st6" points="8.1,6.8 8.1,6.8 8.1,6.8  "/>
	<linearGradient id="XMLID_13_" gradientUnits="userSpaceOnUse" x1="11.1967" y1="8.6882" x2="17.0906" y2="-1.6768">
		<stop offset="0" style="stop-color:#F7DB31"/>
		<stop offset="0.1991" style="stop-color:#F4B840"/>
		<stop offset="0.6344" style="stop-color:#EB4F58"/>
		<stop offset="1" style="stop-color:#8330C5"/>
	</linearGradient>
	<path id="XMLID_1533_" class="st7" d="M16.9,5.9c-0.8,1.1-2,1.8-3.4,1.3c-1.1-0.4-1.9-1.3-3-1.6c-1.1-0.4-2.4,1-2.5,1.1v0   c0,0,0,0,0,0c0,0,0,0,0,0C8.4,6.4,9.9,4.5,12,5.3c-0.1,0-0.9-0.2-1.3,0c0,0,1-0.1,2.3,0.8c1.3,0.9,2.5,0,2.5,0s-0.3,0.5-1,0.6   c0,0,3.3-0.2,2.9-3.7c0,0,0,0,0,0C17.8,4,17.5,5.1,16.9,5.9z"/>
	<path id="XMLID_1532_" class="st8" d="M15.4,4.8c0.3,0,0.8-0.1,0.8-0.1c-1.1,0.5-2.4,0-2.6,0L14.4,5c-1.5-0.6-2.4-0.7-2.7-0.7   c0.5,0,0.9,0.3,1,0.3C10.5,3.8,9,5.4,8.4,6.2c1.8-2.8,3.3-2.1,5.7-1.6c2.4,0.5,3.2-1.4,3.3-1.6C17,4.8,15.4,4.8,15.4,4.8z"/>
	<defs>
		<filter id="Adobe_OpacityMaskFilter" filterUnits="userSpaceOnUse" x="8.1" y="3" width="9.3" height="3.7">
			<feFlood style="flood-color:white;flood-opacity:1" result="back"/>
			<feBlend in="SourceGraphic" in2="back" mode="normal"/>
		</filter>
	</defs>
	<mask maskUnits="userSpaceOnUse" x="8.1" y="3" width="9.3" height="3.7" id="XMLID_14_">
		<g id="XMLID_133_" class="st9">
			<defs>
				<filter id="Adobe_OpacityMaskFilter_1_" filterUnits="userSpaceOnUse" x="8.1" y="3" width="9.3" height="3.7">
					<feFlood style="flood-color:white;flood-opacity:1" result="back"/>
					<feBlend in="SourceGraphic" in2="back" mode="normal"/>
				</filter>
			</defs>
			<mask maskUnits="userSpaceOnUse" x="8.1" y="3" width="9.3" height="3.7" id="XMLID_14_">
				<g id="XMLID_210_" class="st10">
				</g>
			</mask>
			<radialGradient id="XMLID_15_" cx="12.6776" cy="4.3803" r="6.5136" gradientUnits="userSpaceOnUse">
				<stop offset="0" style="stop-color:#FFFFFF"/>
				<stop offset="1" style="stop-color:#000000"/>
			</radialGradient>
			<path id="XMLID_134_" class="st11" d="M17.5,3c0,0,0,0.1,0,0.1c0,0.1-0.1,0.2-0.2,0.3c-0.1,0.1-0.2,0.3-0.3,0.5     c-0.1,0.1-0.2,0.2-0.2,0.2c-0.1,0.1-0.2,0.2-0.3,0.2c-0.2,0.1-0.5,0.3-0.8,0.3c-0.1,0-0.3,0.1-0.5,0.1c-0.1,0-0.2,0-0.2,0     c0,0-0.1,0-0.1,0c0,0-0.1,0-0.1,0c-0.1,0-0.2,0-0.3,0c-0.1,0-0.2,0-0.2,0c-0.2,0-0.3-0.1-0.5-0.1c-0.3-0.1-0.7-0.2-1-0.2     c-0.2,0-0.3-0.1-0.5-0.1c-0.2,0-0.3,0-0.5,0c-0.2,0-0.3,0-0.5,0c-0.2,0-0.3,0-0.5,0.1C10.3,4.5,10,4.6,9.8,4.8     C9.6,4.9,9.4,5.1,9.2,5.3C9,5.5,8.8,5.7,8.7,5.9c0,0-0.1,0.1-0.1,0.1c0,0-0.1,0.1-0.1,0.1C8.5,6.2,8.4,6.3,8.4,6.3     C8.3,6.5,8.2,6.6,8.2,6.6c0,0.1-0.1,0.1-0.1,0.1c0,0,0,0,0,0c0.1-0.2,0.2-0.3,0.3-0.5c1.8-2.8,3.3-2.1,5.7-1.6     C16.5,5.2,17.4,3.3,17.5,3z"/>
		</g>
	</mask>
	<radialGradient id="XMLID_18_" cx="12.6776" cy="4.3803" r="6.5136" gradientUnits="userSpaceOnUse">
		<stop offset="0" style="stop-color:#FFFFFF"/>
		<stop offset="1" style="stop-color:#231F20"/>
	</radialGradient>
	<path id="XMLID_1531_" class="st12" d="M17.5,3c0,0,0,0.1,0,0.1c0,0.1-0.1,0.2-0.2,0.3c-0.1,0.1-0.2,0.3-0.3,0.5   c-0.1,0.1-0.2,0.2-0.2,0.2c-0.1,0.1-0.2,0.2-0.3,0.2c-0.2,0.1-0.5,0.3-0.8,0.3c-0.1,0-0.3,0.1-0.5,0.1c-0.1,0-0.2,0-0.2,0   c0,0-0.1,0-0.1,0c0,0-0.1,0-0.1,0c-0.1,0-0.2,0-0.3,0c-0.1,0-0.2,0-0.2,0c-0.2,0-0.3-0.1-0.5-0.1c-0.3-0.1-0.7-0.2-1-0.2   c-0.2,0-0.3-0.1-0.5-0.1c-0.2,0-0.3,0-0.5,0c-0.2,0-0.3,0-0.5,0c-0.2,0-0.3,0-0.5,0.1C10.3,4.5,10,4.6,9.8,4.8   C9.6,4.9,9.4,5.1,9.2,5.3C9,5.5,8.8,5.7,8.7,5.9c0,0-0.1,0.1-0.1,0.1c0,0-0.1,0.1-0.1,0.1C8.5,6.2,8.4,6.3,8.4,6.3   C8.3,6.5,8.2,6.6,8.2,6.6c0,0.1-0.1,0.1-0.1,0.1c0,0,0,0,0,0c0.1-0.2,0.2-0.3,0.3-0.5c1.8-2.8,3.3-2.1,5.7-1.6   C16.5,5.2,17.4,3.3,17.5,3z"/>
</g>
<linearGradient id="XMLID_19_" gradientUnits="userSpaceOnUse" x1="8.1214" y1="6.6633" x2="8.283" y2="6.6633">
	<stop offset="0" style="stop-color:#F7DB31"/>
	<stop offset="0.1991" style="stop-color:#F4B840"/>
	<stop offset="0.6344" style="stop-color:#EB4F58"/>
	<stop offset="1" style="stop-color:#8330C5"/>
</linearGradient>
<path id="XMLID_1529_" class="st13" d="M8.1,6.8c0,0,0.1-0.1,0.2-0.2L8.1,6.8z"/>
<g id="XMLID_1524_">
	<linearGradient id="XMLID_22_" gradientUnits="userSpaceOnUse" x1="7.8298" y1="6.6593" x2="16.0711" y2="1.5963">
		<stop offset="0" style="stop-color:#F7DB31"/>
		<stop offset="0.1991" style="stop-color:#F4B840"/>
		<stop offset="0.6344" style="stop-color:#EB4F58"/>
		<stop offset="1" style="stop-color:#8330C5"/>
	</linearGradient>
	<path id="XMLID_1528_" class="st14" d="M14.1,4.3C14,4.3,14,4.3,14.1,4.3c-2.6-0.4-4.2-1.1-5.9,2.4l0,0c0,0,0,0,0,0c0,0,0,0,0,0   c0,0,0,0,0,0l0,0c0,0,0,0,0,0c0,0,0,0,0,0c0,0,0,0,0,0c0.1-0.3,0.6-2.3,2-3c1.8-0.8,3,0.1,4.3-1.3C14.4,2.5,14.7,3.7,14.1,4.3z"/>
	<linearGradient id="XMLID_23_" gradientUnits="userSpaceOnUse" x1="6.9436" y1="7.3357" x2="15.1852" y2="2.2725">
		<stop offset="0" style="stop-color:#F7DB31"/>
		<stop offset="0.1991" style="stop-color:#F4B840"/>
		<stop offset="0.6344" style="stop-color:#EB4F58"/>
		<stop offset="1" style="stop-color:#8330C5"/>
	</linearGradient>
	<path id="XMLID_1527_" class="st15" d="M14.1,4.3C14,4.3,14,4.3,14.1,4.3c-2.6-0.4-4.2-1.1-5.9,2.4c0,0,0,0,0,0c0,0,0,0,0,0   c0,0,0,0,0,0c0,0,0,0,0,0c0,0,0,0,0,0c0,0,0,0,0,0c0.1-0.4,1.1-2.9,3.1-3c0,0,1.2-0.1,1.5-0.2c0,0-0.2,0.2-0.7,0.2   c0,0,1.6,0,1.9-0.5c0,0.1-0.1,0.3-0.3,0.4c0,0,0.8-0.2,0.8-1.1C14.4,2.5,14.7,3.7,14.1,4.3z"/>
	<linearGradient id="XMLID_24_" gradientUnits="userSpaceOnUse" x1="9.7622" y1="7.8327" x2="14.8249" y2="-1.0708">
		<stop offset="0" style="stop-color:#F7DB31"/>
		<stop offset="0.1991" style="stop-color:#F4B840"/>
		<stop offset="0.6344" style="stop-color:#EB4F58"/>
		<stop offset="1" style="stop-color:#8330C5"/>
	</linearGradient>
	<path id="XMLID_1526_" class="st16" d="M14.1,4.3C14,4.3,14,4.3,14.1,4.3c-2.6-0.4-4.2-1.1-5.9,2.4l0,0c0,0,0,0,0,0c0,0,0,0,0,0   c0,0,0,0,0,0C8.2,6.4,9.1,4.5,10.4,4c0,0,0.6-0.2,0.8-0.2c0,0-0.2,0.1-0.4,0.2c0.1,0,0.6-0.2,1.1-0.1c0.6,0,1.1,0.1,1.4-0.1   c0,0-0.2,0.2-0.7,0.2c0,0,0.9,0.1,1.2-0.4c0,0-0.1,0.3-0.2,0.3c0,0,0.9-0.2,0.8-1.4C14.4,2.5,14.7,3.7,14.1,4.3z"/>
	<linearGradient id="XMLID_25_" gradientUnits="userSpaceOnUse" x1="9.4128" y1="7.6258" x2="14.4703" y2="-1.2685">
		<stop offset="0" style="stop-color:#F4BA3A"/>
		<stop offset="1" style="stop-color:#F19943"/>
	</linearGradient>
	<path id="XMLID_1525_" class="st17" d="M12.7,3.4c0.3,0,0.7-0.1,0.7-0.1c-0.5,0.2-1.5,0.2-2.1,0.2c-0.6,0-1.1,0.3-1.1,0.3   c0.4-0.2,0.6-0.2,0.7-0.2C9,4,8.2,6.5,8.1,6.7c0,0,0,0,0,0c0.1-0.3,0.6-2.3,2-3c1.8-0.8,3,0.1,4.3-1.3C13.8,3.3,12.7,3.4,12.7,3.4z   "/>
</g>
<g id="XMLID_1516_">
	<linearGradient id="XMLID_28_" gradientUnits="userSpaceOnUse" x1="8.2089" y1="6.933" x2="9.276" y2="2.3458">
		<stop offset="0" style="stop-color:#F7DB31"/>
		<stop offset="0.4195" style="stop-color:#F4B840"/>
		<stop offset="1" style="stop-color:#E72A7A"/>
	</linearGradient>
	<path id="XMLID_1523_" class="st18" d="M9.3,4.1C8.5,5,8.2,6.5,8.1,6.7c0,0,0,0,0,0c0,0,0,0,0,0c0,0,0,0,0,0c0,0,0,0,0,0   c0-0.3-0.2-2.3,1.1-3.1c0,0,0,0,0,0c0,0,0.1,0,0.1-0.1c0,0,0,0,0,0.1v0C9.3,3.7,9.3,3.9,9.3,4.1z"/>
	<linearGradient id="XMLID_29_" gradientUnits="userSpaceOnUse" x1="8.1488" y1="7.4759" x2="9.2159" y2="2.8885">
		<stop offset="0" style="stop-color:#F7DB31"/>
		<stop offset="0.4195" style="stop-color:#F4B840"/>
		<stop offset="1" style="stop-color:#E72A7A"/>
	</linearGradient>
	<path id="XMLID_1522_" class="st19" d="M9.3,4.1C8.5,5,8.2,6.5,8.1,6.7c0,0,0,0,0,0c0,0,0,0,0,0c0,0,0-1.5,0.4-2.3   c0,0.1-0.1,0.3-0.1,0.5c0,0,0-0.3,0.5-0.9c0.2-0.3,0.3-0.4,0.3-0.5C9.3,3.7,9.3,3.9,9.3,4.1z"/>
	<linearGradient id="XMLID_30_" gradientUnits="userSpaceOnUse" x1="7.857" y1="6.6652" x2="10.3581" y2="2.2667">
		<stop offset="0" style="stop-color:#F7DB31"/>
		<stop offset="0.1991" style="stop-color:#F4B840"/>
		<stop offset="0.6344" style="stop-color:#EB4F58"/>
		<stop offset="1" style="stop-color:#8330C5"/>
	</linearGradient>
	<path id="XMLID_1520_" class="st20" d="M9.3,4.1C8.5,5,8.2,6.5,8.1,6.7c0-0.1,0.1-1,0.3-1.4l0,0.3c0-0.1,0.2-0.7,0.7-1.4   c0,0.1-0.2,0.3-0.2,0.4c0,0,0.4-0.5,0.4-0.7c0,0,0,0.1,0,0.2c0,0,0.2-0.2,0.2-0.6C9.3,3.7,9.3,3.9,9.3,4.1z"/>
	<linearGradient id="XMLID_31_" gradientUnits="userSpaceOnUse" x1="7.7059" y1="6.5774" x2="10.1426" y2="2.292">
		<stop offset="0" style="stop-color:#F4BA3A"/>
		<stop offset="1" style="stop-color:#F19943"/>
	</linearGradient>
	<path id="XMLID_1519_" class="st21" d="M8.6,4.3c0.1-0.1,0.2-0.2,0.3-0.2C8.3,4.5,8.2,5.3,8.2,5.3c0-0.1,0.1-0.2,0.1-0.2   C8.1,5.5,8.1,6.5,8.1,6.7c0,0,0,0,0,0l0,0c0-0.3-0.2-2.3,1.1-3.1C8.9,3.8,8.6,4.3,8.6,4.3z"/>
	<defs>
		<filter id="Adobe_OpacityMaskFilter_2_" filterUnits="userSpaceOnUse" x="8.1" y="3.5" width="1.2" height="3.2">
			<feFlood style="flood-color:white;flood-opacity:1" result="back"/>
			<feBlend in="SourceGraphic" in2="back" mode="normal"/>
		</filter>
	</defs>
	<mask maskUnits="userSpaceOnUse" x="8.1" y="3.5" width="1.2" height="3.2" id="XMLID_34_">
		<g id="XMLID_116_" class="st22">
			<defs>
				<filter id="Adobe_OpacityMaskFilter_3_" filterUnits="userSpaceOnUse" x="8.1" y="3.5" width="1.2" height="3.2">
					<feFlood style="flood-color:white;flood-opacity:1" result="back"/>
					<feBlend in="SourceGraphic" in2="back" mode="normal"/>
				</filter>
			</defs>
			<mask maskUnits="userSpaceOnUse" x="8.1" y="3.5" width="1.2" height="3.2" id="XMLID_34_">
				<g id="XMLID_205_" class="st23">
				</g>
			</mask>
			<radialGradient id="XMLID_35_" cx="8.3882" cy="4.4635" r="2.608" gradientUnits="userSpaceOnUse">
				<stop offset="0" style="stop-color:#FFFFFF"/>
				<stop offset="1" style="stop-color:#000000"/>
			</radialGradient>
			<path id="XMLID_117_" class="st24" d="M9.3,3.5L9.3,3.5C9.2,3.5,9.2,3.6,9.2,3.6l0,0l0,0C9.1,3.6,9.1,3.7,9,3.7     C9,3.8,8.9,3.8,8.9,3.9c0,0.1-0.1,0.1-0.1,0.2c0,0,0,0.1-0.1,0.1c0,0,0,0.1-0.1,0.1c0,0.1-0.1,0.1-0.1,0.2c0,0.1-0.1,0.1-0.1,0.2     c0,0,0,0.1,0,0.1c0,0,0,0.1,0,0.1c0,0.1,0,0.1-0.1,0.2c0,0.1,0,0.1-0.1,0.2c0,0.1,0,0.1,0,0.2c0,0.1,0,0.1,0,0.2     c0,0.1,0,0.1,0,0.2c0,0.1,0,0.1,0,0.2c0,0.1,0,0.1,0,0.2c0,0.1,0,0.1,0,0.2c0,0.1,0,0.1,0,0.2c0-0.3-0.2-2.3,1.1-3.1     C9.2,3.6,9.2,3.6,9.3,3.5C9.2,3.5,9.3,3.5,9.3,3.5z"/>
		</g>
	</mask>
	<radialGradient id="XMLID_36_" cx="8.3882" cy="4.4635" r="2.608" gradientUnits="userSpaceOnUse">
		<stop offset="0" style="stop-color:#FFFFFF"/>
		<stop offset="1" style="stop-color:#231F20"/>
	</radialGradient>
	<path id="XMLID_1517_" class="st25" d="M9.3,3.5L9.3,3.5C9.2,3.5,9.2,3.6,9.2,3.6l0,0l0,0C9.1,3.6,9.1,3.7,9,3.7   C9,3.8,8.9,3.8,8.9,3.9c0,0.1-0.1,0.1-0.1,0.2c0,0,0,0.1-0.1,0.1c0,0,0,0.1-0.1,0.1c0,0.1-0.1,0.1-0.1,0.2c0,0.1-0.1,0.1-0.1,0.2   c0,0,0,0.1,0,0.1c0,0,0,0.1,0,0.1c0,0.1,0,0.1-0.1,0.2c0,0.1,0,0.1-0.1,0.2c0,0.1,0,0.1,0,0.2c0,0.1,0,0.1,0,0.2c0,0.1,0,0.1,0,0.2   c0,0.1,0,0.1,0,0.2c0,0.1,0,0.1,0,0.2c0,0.1,0,0.1,0,0.2c0,0.1,0,0.1,0,0.2c0-0.3-0.2-2.3,1.1-3.1C9.2,3.6,9.2,3.6,9.3,3.5   C9.2,3.5,9.3,3.5,9.3,3.5z"/>
</g>
<g id="XMLID_1511_">
	<linearGradient id="XMLID_37_" gradientUnits="userSpaceOnUse" x1="14.2254" y1="15.8106" x2="30.654" y2="28.1987">
		<stop offset="0" style="stop-color:#F7DB31"/>
		<stop offset="0.1991" style="stop-color:#F4B840"/>
		<stop offset="0.5108" style="stop-color:#EB4F58"/>
		<stop offset="0.9086" style="stop-color:#8330C5"/>
	</linearGradient>
	<path id="XMLID_1515_" class="st26" d="M25.1,27C25.1,27,25.1,27,25.1,27c0.7-2.9-2.6-3.7-2.6-3.7c-7.5-2.1-7.3-7.1-7.2-7.3   c0,0,0,0,0,0s0,0,0,0c0,0,0,0,0,0c1.6,3.8,4.2,4.6,8.1,4.9C29.8,21.4,25.3,26.8,25.1,27z"/>
	<linearGradient id="XMLID_40_" gradientUnits="userSpaceOnUse" x1="11.9726" y1="17.2212" x2="28.2899" y2="25.7017">
		<stop offset="0" style="stop-color:#F7DB31"/>
		<stop offset="0.1991" style="stop-color:#F4B840"/>
		<stop offset="0.6344" style="stop-color:#EB4F58"/>
		<stop offset="1" style="stop-color:#8330C5"/>
	</linearGradient>
	<path id="XMLID_1514_" class="st27" d="M24.9,22.6c0,0,1.9,1.7,0.2,4.4c0.7-3-2.6-3.7-2.6-3.7c-7.5-2.1-7.3-7.1-7.2-7.3   c0,0,0,0,0,0s0,0,0,0c0,0.2,1,4.9,6.5,5.3c0,0-1.1,0.2-2.7-0.3c0.1,0.1,2.2,0.9,4.7,1c2.7,0.1,2.4,1.9,2.4,1.9S26.1,22.7,24.9,22.6   z"/>
	<linearGradient id="XMLID_41_" gradientUnits="userSpaceOnUse" x1="11.9794" y1="17.2269" x2="28.2632" y2="25.69">
		<stop offset="0" style="stop-color:#F7DB31"/>
		<stop offset="0.1991" style="stop-color:#F4B840"/>
		<stop offset="0.6344" style="stop-color:#EB4F58"/>
		<stop offset="1" style="stop-color:#8330C5"/>
	</linearGradient>
	<path id="XMLID_1513_" class="st28" d="M25.1,27c0.7-3-2.6-3.7-2.6-3.7c-7.5-2.1-7.3-7.1-7.2-7.3l0,0c0,0,0.1,2.4,2.2,4   c-0.1,0-0.7-0.5-1.1-0.8c0.1,0.1,1.2,2.2,5,3c0,0-1.3-0.2-2.2-0.6c0.1,0.1,1.6,0.9,3.7,1.1c2.1,0.2,2.6,1.5,2.6,1.6   c0-0.1-0.7-0.9-1.7-1.1C23.9,23.2,26.1,24.1,25.1,27z"/>
	<linearGradient id="XMLID_42_" gradientUnits="userSpaceOnUse" x1="11.956" y1="17.2151" x2="28.4844" y2="25.8054">
		<stop offset="0" style="stop-color:#F4BA3A"/>
		<stop offset="1" style="stop-color:#F19943"/>
	</linearGradient>
	<path id="XMLID_1512_" class="st29" d="M26.2,25.1c0.3-0.8,0.3-1.7,0-2.5c-0.2-0.4-0.5-0.7-0.8-0.9c-0.4-0.2-0.9-0.4-1.3-0.5   c-0.4-0.1-0.8-0.2-1.2-0.2c0.8,0.1,1.4,0.6,1.5,0.6c-0.1,0-0.8-0.4-2.7-0.7c-1.9-0.3-3-0.9-3-1c0.3,0.3,1,0.6,1.1,0.6   c-3.5-1.1-4.5-4.5-4.5-4.7c1.6,3.8,4.2,4.6,8.1,4.9c6.5,0.5,2,5.9,1.8,6.2C25.5,26.4,26,25.8,26.2,25.1z"/>
</g>
<g id="XMLID_1506_">
	<linearGradient id="XMLID_43_" gradientUnits="userSpaceOnUse" x1="16.9649" y1="16.2953" x2="31.725" y2="22.3103">
		<stop offset="0" style="stop-color:#F7DB31"/>
		<stop offset="0.1991" style="stop-color:#F4B840"/>
		<stop offset="0.5108" style="stop-color:#EB4F58"/>
		<stop offset="0.9086" style="stop-color:#8330C5"/>
	</linearGradient>
	<path id="XMLID_1510_" class="st30" d="M28,23.4C28,23.4,28,23.4,28,23.4c0.5-3.6-4.6-2.9-6.7-3.2C20.1,20,19,19.7,18,19.1   c-0.6-0.4-1.2-0.9-1.6-1.5C16.3,17.5,16,17.1,16,17c0,0,0,0,0,0c0,0,0,0,0,0c0,0,0,0,0,0c4.2,3.7,7.7-0.3,11.5,0.9   C31.6,19.3,28.1,23.3,28,23.4z"/>
	<linearGradient id="XMLID_44_" gradientUnits="userSpaceOnUse" x1="13.0383" y1="21.5876" x2="30.1194" y2="19.0035">
		<stop offset="0" style="stop-color:#F7DB31"/>
		<stop offset="0.1991" style="stop-color:#F4B840"/>
		<stop offset="0.6344" style="stop-color:#EB4F58"/>
		<stop offset="1" style="stop-color:#8330C5"/>
	</linearGradient>
	<path id="XMLID_1509_" class="st31" d="M27.8,19.8c0.1,0.1,1.4,1.2,0.1,3.6c0,0,0,0,0,0c0.5-3.6-4.6-2.9-6.7-3.2   C20.1,20,19,19.7,18,19.1c-0.6-0.4-1.2-0.9-1.6-1.5C16.3,17.5,16,17.1,16,17c0,0,0,0,0,0c0,0,0,0,0,0c0,0,0,0,0,0c0,0,0,0,0,0   c0,0,0,0,0,0c0.3,0.3,2.6,3,7.3,1.8c0,0-0.8,0.4-2.1,0.6c0.8-0.1,1.5-0.1,2.3-0.2c0.7-0.1,1.4-0.2,2.1-0.3c0.8-0.1,1.4-0.1,2,0.2   c0.7,0.4,1.2,1.1,1.2,1.9C28.6,20.6,28.3,20.1,27.8,19.8z"/>
	<linearGradient id="XMLID_45_" gradientUnits="userSpaceOnUse" x1="15.9705" y1="20.2362" x2="28.1541" y2="20.2362">
		<stop offset="0" style="stop-color:#F7DB31"/>
		<stop offset="0.1991" style="stop-color:#F4B840"/>
		<stop offset="0.6344" style="stop-color:#EB4F58"/>
		<stop offset="1" style="stop-color:#8330C5"/>
	</linearGradient>
	<path id="XMLID_1508_" class="st32" d="M28,23.4C28,23.4,28,23.4,28,23.4c0.5-3.6-4.6-2.9-6.7-3.2C20.1,20,19,19.7,18,19.1   c-0.6-0.4-1.2-0.9-1.6-1.5C16.3,17.5,16,17.1,16,17l0,0c0,0,0,0,0,0c0,0,0,0,0,0c0.1,0.1,2,3.4,7.9,2.7c0,0-0.7,0.3-2.1,0.2   c0,0,1.7,0.2,3.2-0.1c1.4-0.3,2.3,0.2,2.4,0.3c-0.1,0-1-0.3-1.9-0.1C25.5,20,28.9,19.8,28,23.4z"/>
	<linearGradient id="XMLID_46_" gradientUnits="userSpaceOnUse" x1="15.9741" y1="20.2344" x2="29.4813" y2="20.2344">
		<stop offset="0" style="stop-color:#F4BA3A"/>
		<stop offset="1" style="stop-color:#F19943"/>
	</linearGradient>
	<path id="XMLID_1507_" class="st33" d="M28,23.4c3.1-4.2-0.3-5.1-0.4-5.1c0.6,0.2,0.9,0.9,1,1c-1.1-1.6-4.2-1.1-4.2-1.1   c0.8-0.1,1.7,0.2,1.7,0.2h-0.1c0,0-0.9-0.2-3.2,0.3c-2.2,0.4-3.5,0.1-3.6,0.1c0.3,0.1,0.9,0.2,0.9,0.2c-2.7-0.2-4-1.7-4.2-1.9   c0,0,0,0,0,0c0,0,0,0,0,0c4.2,3.7,7.7-0.3,11.5,0.9C31.6,19.3,28.1,23.3,28,23.4z"/>
</g>
<g id="XMLID_1500_">
	<linearGradient id="XMLID_47_" gradientUnits="userSpaceOnUse" x1="17.1163" y1="16.0701" x2="33.7117" y2="16.8326">
		<stop offset="0" style="stop-color:#F7DB31"/>
		<stop offset="0.1991" style="stop-color:#F4B840"/>
		<stop offset="0.5108" style="stop-color:#EB4F58"/>
		<stop offset="0.9086" style="stop-color:#8330C5"/>
	</linearGradient>
	<path id="XMLID_1505_" class="st34" d="M30.5,19.5C30.5,19.6,30.5,19.6,30.5,19.5c-0.1-1.8-3.4-3.8-7-2.1c-3.7,1.7-6.2,0.3-6.6,0.1   c0,0,0,0,0,0c0,0,0,0,0,0c0,0,0,0,0,0c0,0,0,0,0,0c0,0,0,0,0,0c0,0,0,0,0,0c0,0,0,0,0,0h0c5.8,1.7,8-4.4,11.3-3.8   C32,14.4,30.6,19.3,30.5,19.5z"/>
	<linearGradient id="XMLID_50_" gradientUnits="userSpaceOnUse" x1="17.7703" y1="22.7904" x2="30.2893" y2="13.8007">
		<stop offset="0" style="stop-color:#F7DB31"/>
		<stop offset="0.1991" style="stop-color:#F4B840"/>
		<stop offset="0.6344" style="stop-color:#EB4F58"/>
		<stop offset="1" style="stop-color:#8330C5"/>
	</linearGradient>
	<path id="XMLID_1503_" class="st35" d="M30.5,19.6c-0.1-1.8-3.4-3.8-7-2.1c-3.7,1.7-6.2,0.3-6.6,0.1c0,0,0,0,0,0c0,0,0,0,0,0   c0,0,0,0,0,0c0,0,0,0,0,0c0,0,0,0,0,0c0,0,0,0,0,0c0,0,0,0,0,0h0c0,0,0.1,0,0.1,0c0.7,0.3,4.2,1.4,7.4-1.5c0,0-0.5,0.7-1,1   c0.1,0,1.1-0.5,1.9-1.2c0.8-0.7,2.5-2,4.3-0.6c-0.1,0-0.9-0.5-1.7-0.3C27.9,15,31.1,15.9,30.5,19.6z"/>
	<linearGradient id="XMLID_51_" gradientUnits="userSpaceOnUse" x1="16.9367" y1="17.6014" x2="30.4896" y2="17.6014">
		<stop offset="0" style="stop-color:#F7DB31"/>
		<stop offset="0.1991" style="stop-color:#F4B840"/>
		<stop offset="0.6344" style="stop-color:#EB4F58"/>
		<stop offset="1" style="stop-color:#8330C5"/>
	</linearGradient>
	<path id="XMLID_1502_" class="st36" d="M30.5,19.6c-0.1-1.8-3.4-3.8-7-2.1c-3.8,1.7-6.3,0.3-6.6,0.1c0.3,0.2,3.2,1.5,7.1-0.5   c0.1-0.1,0.2-0.1,0.3-0.2c4.4-2.8,5.4,0.3,5.5,0.4c0-0.1-0.7-1.4-2.4-1.3C27.4,16,30.3,16.2,30.5,19.6z"/>
	<linearGradient id="XMLID_52_" gradientUnits="userSpaceOnUse" x1="16.9314" y1="16.6173" x2="30.8443" y2="16.6173">
		<stop offset="0" style="stop-color:#F4BA3A"/>
		<stop offset="1" style="stop-color:#F19943"/>
	</linearGradient>
	<path id="XMLID_1501_" class="st37" d="M30.5,19.5c0.8-3.2-0.5-4.7-0.8-4.9c0.4,0.4,0.5,1.3,0.5,1.3c-1-3.1-4.4-1.3-4.5-1.3   c0.4-0.2,1.1-0.3,1.3-0.3c-0.3,0-1.2,0.3-2.6,1.4c-1.7,1.3-3.1,1.8-3.1,1.8c0.4,0,1.2-0.3,1.3-0.3c-2.5,1.2-5,0.5-5.5,0.4   c0,0-0.1,0-0.1,0c0,0,0,0,0,0l0,0c5.8,1.7,8-4.4,11.3-3.8C32,14.4,30.6,19.3,30.5,19.5z"/>
</g>
<linearGradient id="XMLID_53_" gradientUnits="userSpaceOnUse" x1="15.9625" y1="18.29" x2="37.9852" y2="14.3827">
	<stop offset="0" style="stop-color:#F7DB31"/>
	<stop offset="0.1991" style="stop-color:#F4B840"/>
	<stop offset="0.5108" style="stop-color:#EB4F58"/>
	<stop offset="0.9086" style="stop-color:#8330C5"/>
</linearGradient>
<path id="XMLID_1497_" class="st38" d="M32.8,20.3c0,0-0.1-0.1-0.1-0.1c0,0,0,0,0,0c-1.4-0.9-1.1-4.2-1.1-4.2  c-0.1-4.1-4-4.9-6.9-1.5c-2.8,3.4-5.7,3.1-5.7,3.1c3.3-0.6,5-3.8,6-4.7c4.4-4.1,8-0.4,7.3,3.3c-0.5,2.5,0.2,3.6,0.4,3.9  C32.7,20.2,32.8,20.2,32.8,20.3C32.8,20.3,32.8,20.3,32.8,20.3z"/>
<linearGradient id="XMLID_54_" gradientUnits="userSpaceOnUse" x1="20.6333" y1="20.7994" x2="33.5715" y2="14.271">
	<stop offset="0" style="stop-color:#F7DB31"/>
	<stop offset="0.1991" style="stop-color:#F4B840"/>
	<stop offset="0.6344" style="stop-color:#EB4F58"/>
	<stop offset="1" style="stop-color:#8330C5"/>
</linearGradient>
<path id="XMLID_1494_" class="st39" d="M32.8,20.3c0,0-0.1-0.1-0.1-0.1c0,0,0,0,0,0c-1.4-0.9-1.1-4.2-1.1-4.2  c-0.1-4.1-4-4.9-6.9-1.5c-2.8,3.4-5.7,3.1-5.7,3.1s0,0,0.1,0c0,0,0,0,0,0c0,0,0,0,0,0c0.5,0,3.1-0.4,5.5-3.7  c1.3-1.8,3.7-2.9,5.8-1.7c1.5,0.9,1.7,2.9,1.5,4.4C31.6,18.4,32.2,19.9,32.8,20.3z"/>
<linearGradient id="XMLID_55_" gradientUnits="userSpaceOnUse" x1="16.1721" y1="18.6372" x2="37.1628" y2="14.913">
	<stop offset="0" style="stop-color:#F7DB31"/>
	<stop offset="0.1991" style="stop-color:#F4B840"/>
	<stop offset="0.6344" style="stop-color:#EB4F58"/>
	<stop offset="1" style="stop-color:#8330C5"/>
</linearGradient>
<path id="XMLID_1493_" class="st40" d="M32.6,20.2c-1.4-0.9-1.1-4.2-1.1-4.2c-0.1-4.1-4-4.9-6.9-1.5c-2.8,3.4-5.7,3.1-5.7,3.1  s0,0,0.1,0c0,0,0,0,0,0c0,0,0,0,0,0c0.5,0,2.7-0.3,4.6-2.3c2.1-2.3,3-3.3,5.1-3.2c2.1,0.1,3,1.8,2.9,3.9  C31.7,18,31.6,19.2,32.6,20.2z"/>
<linearGradient id="XMLID_56_" gradientUnits="userSpaceOnUse" x1="15.9515" y1="18.228" x2="37.9742" y2="14.3207">
	<stop offset="0" style="stop-color:#F4BA3A"/>
	<stop offset="1" style="stop-color:#F19943"/>
</linearGradient>
<path id="XMLID_1492_" class="st41" d="M31.9,16.9c0.2-1,0.2-2.1,0.2-2.1c-0.2-1.8-1.4-3.2-3.1-3.4c-1.7-0.2-3.1,0.8-3.8,1.6  c-0.7,0.7-2,2.2-2,2.2C21,17.5,19,17.6,19,17.6c3.3-0.6,5-3.8,6-4.7c4.4-4.1,8-0.4,7.3,3.3c-0.5,2.5,0.2,3.6,0.4,3.9  C31.9,19.4,31.7,17.9,31.9,16.9z"/>
<linearGradient id="XMLID_57_" gradientUnits="userSpaceOnUse" x1="19.1259" y1="17.3374" x2="38.108" y2="13.5676">
	<stop offset="0" style="stop-color:#F7DB31"/>
	<stop offset="0.1991" style="stop-color:#F4B840"/>
	<stop offset="0.5108" style="stop-color:#EB4F58"/>
	<stop offset="0.9086" style="stop-color:#8330C5"/>
</linearGradient>
<path id="XMLID_1490_" class="st42" d="M34,21.8c0,0,0,0.1,0,0.1c-0.1-0.2-1.3-3-1-5.4c0.3-3-0.5-5-0.5-5c-1.7-3.6-6.1-2.1-8.2,1.3  c-1.5,2.4-3.2,3.6-3.5,3.8c0,0,0,0,0,0c0,0,0,0,0,0c0,0,0,0,0,0c1.8-1.6,2.3-3.1,3.5-5.4c1.2-2.6,3.9-3.9,6.2-3.3  c2.6,0.6,4.5,3.1,3.4,7.3c-0.3,1.4-0.5,2.6-0.4,3.6v0C33.6,20.3,33.9,21.4,34,21.8C34,21.8,34,21.8,34,21.8z"/>
<linearGradient id="XMLID_58_" gradientUnits="userSpaceOnUse" x1="16.1024" y1="17.4123" x2="35.0102" y2="14.7803">
	<stop offset="0" style="stop-color:#F7DB31"/>
	<stop offset="0.1991" style="stop-color:#F4B840"/>
	<stop offset="0.6344" style="stop-color:#EB4F58"/>
	<stop offset="1" style="stop-color:#8330C5"/>
</linearGradient>
<path id="XMLID_1489_" class="st43" d="M33.1,16.6c0.3-3-0.5-5-0.5-5c-1.7-3.6-6.1-2.1-8.2,1.3c-1.5,2.4-3.2,3.6-3.5,3.8  c0,0,0,0,0,0c0,0,0,0,0,0c0,0,0,0,0,0c0,0,0,0,0,0c0.1-0.1,0.2-0.2,0.4-0.3c0,0,0,0,0,0c0,0,0.1-0.1,0.2-0.1  c0.1-0.1,0.2-0.2,0.3-0.3c0,0,0.1-0.1,0.1-0.1c0.1-0.1,0.1-0.1,0.2-0.2c0.2-0.2,0.5-0.5,0.7-0.8c0.5-0.7,1.1-1.5,1.5-2.4  c1.1-2.6,3.7-4.2,6-3.6c2.3,0.6,3.7,2,3.4,5.9c-0.3,3.8-0.7,4.1,0.3,6.9c0,0,0,0.1,0,0.1c0,0,0,0.1,0,0.1c0,0,0,0,0,0  c0,0,0,0.1,0,0.1C34,21.7,32.8,18.9,33.1,16.6z"/>
<linearGradient id="XMLID_59_" gradientUnits="userSpaceOnUse" x1="19.8983" y1="22.2611" x2="36.3658" y2="12.4061">
	<stop offset="0" style="stop-color:#F7DB31"/>
	<stop offset="0.1991" style="stop-color:#F4B840"/>
	<stop offset="0.6344" style="stop-color:#EB4F58"/>
	<stop offset="1" style="stop-color:#8330C5"/>
</linearGradient>
<path id="XMLID_1488_" class="st44" d="M33.1,16.6c0.3-3-0.5-5-0.5-5c-1.7-3.6-6.1-2.1-8.2,1.3c-1.5,2.4-3.2,3.6-3.5,3.8  c0,0,0,0,0,0c0,0,0,0,0,0c0,0,0,0,0,0c0,0,0,0,0,0c0.1-0.1,0.2-0.2,0.4-0.3c0,0,0,0,0,0c0,0,0.1-0.1,0.2-0.1  c0.1-0.1,0.2-0.2,0.3-0.3c0,0,0.1-0.1,0.1-0.1c0.1-0.1,0.1-0.1,0.2-0.2c0.2-0.2,0.3-0.4,0.5-0.6c0.6-0.7,1.4-1.7,2-2.7  c1.3-2.3,4.4-3.7,6.2-2.9c1.8,0.8,2.4,2,2.6,4.7c0.1,2.7-0.6,3.9,0.6,7.6c0,0,0,0.1,0,0.1c0,0,0,0.1,0,0.1c0,0,0,0.1,0,0.1  C34,21.7,32.8,18.9,33.1,16.6z"/>
<linearGradient id="XMLID_60_" gradientUnits="userSpaceOnUse" x1="18.5184" y1="20.6577" x2="36.6176" y2="9.8263">
	<stop offset="0" style="stop-color:#F4BA3A"/>
	<stop offset="1" style="stop-color:#F19943"/>
</linearGradient>
<path id="XMLID_1487_" class="st45" d="M34,15.2c-0.3,1.4-0.5,2.6-0.4,3.6c-0.3-1.4,0.6-4.6,0.4-6.6c-0.2-1.6-1-3.2-3.7-3.9  c-2.6-0.7-5.6,1.6-6.4,4.2c-0.3,0.9-0.7,1.6-1.2,2.2c-0.1,0.1-0.1,0.2-0.2,0.2c-0.8,1-1.6,1.6-1.7,1.7c0,0,0,0,0,0c0,0,0,0,0,0  c0,0,0,0,0,0c1.8-1.6,2.3-3.1,3.5-5.4c1.2-2.6,3.9-3.9,6.2-3.3C33.2,8.5,35.1,11,34,15.2z"/>
<linearGradient id="XMLID_63_" gradientUnits="userSpaceOnUse" x1="8.8713" y1="9.2442" x2="5.8228" y2="14.6377">
	<stop offset="0" style="stop-color:#F7DB31"/>
	<stop offset="0.1991" style="stop-color:#F4B840"/>
	<stop offset="0.6344" style="stop-color:#EB4F58"/>
	<stop offset="1" style="stop-color:#8330C5"/>
</linearGradient>
<path id="XMLID_1485_" class="st46" d="M9.1,11c-0.2,0.8-0.8,1.7-1.7,1.8c-0.7,0.1-1.2-0.5-1.3-1.1c0.2,0.7,1.4,1.4,2.3,0.1  c0.9-1.2,0.5-2.5,0.4-2.7c0,0,0,0.1,0,0.1C8.9,9.5,9,9.6,9,9.7C9.1,10.1,9.2,10.6,9.1,11z"/>
<linearGradient id="XMLID_64_" gradientUnits="userSpaceOnUse" x1="8.4481" y1="8.9907" x2="6.2203" y2="12.9322">
	<stop offset="0" style="stop-color:#F4BA3A"/>
	<stop offset="1" style="stop-color:#F19943"/>
</linearGradient>
<path id="XMLID_1484_" class="st47" d="M7.7,11.3c-1.3,0.6-1.5-0.4-1-0.6c0,0,0,0,0,0c0,0,0,0,0,0c0.2-0.1,0.5-0.1,0.8-0.1  c1,0,1.3-1,1.3-1.3c0,0,0,0,0,0c0,0,0,0,0,0S8.9,10.7,7.7,11.3z"/>
<defs>
	<filter id="Adobe_OpacityMaskFilter_4_" filterUnits="userSpaceOnUse" x="6.7" y="9.2" width="2.1" height="1.4">
		<feFlood style="flood-color:white;flood-opacity:1" result="back"/>
		<feBlend in="SourceGraphic" in2="back" mode="normal"/>
	</filter>
</defs>
<mask maskUnits="userSpaceOnUse" x="6.7" y="9.2" width="2.1" height="1.4" id="XMLID_65_">
	<g id="XMLID_82_" class="st48">
		<defs>
			<filter id="Adobe_OpacityMaskFilter_5_" filterUnits="userSpaceOnUse" x="6.7" y="9.2" width="2.1" height="1.4">
				<feFlood style="flood-color:white;flood-opacity:1" result="back"/>
				<feBlend in="SourceGraphic" in2="back" mode="normal"/>
			</filter>
		</defs>
		<mask maskUnits="userSpaceOnUse" x="6.7" y="9.2" width="2.1" height="1.4" id="XMLID_65_">
			<g id="XMLID_200_" class="st49">
			</g>
		</mask>
		<radialGradient id="XMLID_66_" cx="8.6538" cy="9.7855" r="2.5565" gradientUnits="userSpaceOnUse">
			<stop offset="0" style="stop-color:#FFFFFF"/>
			<stop offset="0.1076" style="stop-color:#FAFAFA"/>
			<stop offset="0.2313" style="stop-color:#ECECEC"/>
			<stop offset="0.3631" style="stop-color:#D5D5D5"/>
			<stop offset="0.5005" style="stop-color:#B5B5B5"/>
			<stop offset="0.6423" style="stop-color:#8B8B8B"/>
			<stop offset="0.7878" style="stop-color:#585858"/>
			<stop offset="0.9335" style="stop-color:#1D1D1D"/>
			<stop offset="1" style="stop-color:#000000"/>
		</radialGradient>
		<path id="XMLID_83_" class="st50" d="M8.8,9.3c0,0,0,0.1,0,0.1c0,0.1,0,0.1,0,0.2c0,0,0,0.1,0,0.1c0,0,0,0.1,0,0.1    c0,0,0,0.1-0.1,0.1c0,0,0,0.1-0.1,0.1c0,0-0.1,0.1-0.1,0.1c0,0-0.1,0.1-0.1,0.1c0,0,0,0-0.1,0l-0.1,0l-0.1,0c0,0,0,0-0.1,0    c-0.1,0-0.2,0.1-0.3,0.1c-0.1,0-0.2,0-0.3,0c0,0,0,0-0.1,0H7.5l0,0c0,0-0.1,0-0.1,0c-0.1,0-0.1,0-0.2,0c-0.1,0-0.2,0-0.3,0    c0,0-0.1,0-0.1,0c0,0,0,0,0,0c0.2-0.1,0.5-0.1,0.8-0.1c1,0,1.3-1,1.3-1.3c0,0,0,0,0,0S8.8,9.3,8.8,9.3z"/>
	</g>
</mask>
<radialGradient id="XMLID_67_" cx="8.6538" cy="9.7855" r="2.5565" gradientUnits="userSpaceOnUse">
	<stop offset="0" style="stop-color:#FFFFFF"/>
	<stop offset="0.1157" style="stop-color:#FAFAFA"/>
	<stop offset="0.2488" style="stop-color:#EDECEC"/>
	<stop offset="0.3904" style="stop-color:#D6D5D5"/>
	<stop offset="0.5381" style="stop-color:#B6B5B5"/>
	<stop offset="0.6905" style="stop-color:#8D8B8C"/>
	<stop offset="0.8453" style="stop-color:#5C595A"/>
	<stop offset="1" style="stop-color:#231F20"/>
</radialGradient>
<path id="XMLID_1483_" class="st51" d="M8.8,9.3c0,0,0,0.1,0,0.1c0,0.1,0,0.1,0,0.2c0,0,0,0.1,0,0.1c0,0,0,0.1,0,0.1  c0,0,0,0.1-0.1,0.1c0,0,0,0.1-0.1,0.1c0,0-0.1,0.1-0.1,0.1c0,0-0.1,0.1-0.1,0.1c0,0,0,0-0.1,0l-0.1,0l-0.1,0c0,0,0,0-0.1,0  c-0.1,0-0.2,0.1-0.3,0.1c-0.1,0-0.2,0-0.3,0c0,0,0,0-0.1,0H7.5l0,0c0,0-0.1,0-0.1,0c-0.1,0-0.1,0-0.2,0c-0.1,0-0.2,0-0.3,0  c0,0-0.1,0-0.1,0c0,0,0,0,0,0c0.2-0.1,0.5-0.1,0.8-0.1c1,0,1.3-1,1.3-1.3c0,0,0,0,0,0S8.8,9.3,8.8,9.3z"/>
<polygon id="XMLID_1482_" class="st52" points="21.3,16.3 21.3,16.3 21.3,16.3 "/>
<defs>
	<filter id="Adobe_OpacityMaskFilter_6_" filterUnits="userSpaceOnUse" x="21.3" y="7.8" width="12.2" height="8.5">
		<feFlood style="flood-color:white;flood-opacity:1" result="back"/>
		<feBlend in="SourceGraphic" in2="back" mode="normal"/>
	</filter>
</defs>
<mask maskUnits="userSpaceOnUse" x="21.3" y="7.8" width="12.2" height="8.5" id="XMLID_68_">
	<g id="XMLID_75_" class="st53">
		<defs>
			<filter id="Adobe_OpacityMaskFilter_7_" filterUnits="userSpaceOnUse" x="21.3" y="7.8" width="12.2" height="8.5">
				<feFlood style="flood-color:white;flood-opacity:1" result="back"/>
				<feBlend in="SourceGraphic" in2="back" mode="normal"/>
			</filter>
		</defs>
		<mask maskUnits="userSpaceOnUse" x="21.3" y="7.8" width="12.2" height="8.5" id="XMLID_68_">
			<g id="XMLID_194_" class="st54">
			</g>
		</mask>
		<radialGradient id="XMLID_69_" cx="26.3567" cy="8.843" r="11.3195" gradientUnits="userSpaceOnUse">
			<stop offset="0" style="stop-color:#FFFFFF"/>
			<stop offset="1" style="stop-color:#000000"/>
		</radialGradient>
		<path id="XMLID_76_" class="st55" d="M33.5,9.9c0,0,0-0.1-0.1-0.2c0-0.1-0.1-0.1-0.1-0.2c0,0-0.1-0.1-0.1-0.1c0,0-0.1-0.1-0.1-0.1    c-0.2-0.2-0.4-0.4-0.6-0.5c-0.3-0.2-0.6-0.4-1-0.5c-0.2-0.1-0.4-0.1-0.6-0.2C30.7,8,30.4,8,30.2,7.9c-0.4-0.1-0.9,0-1.4,0    c-0.5,0.1-1,0.2-1.4,0.4c-0.5,0.2-0.9,0.5-1.3,0.8c-0.4,0.3-0.8,0.7-1.1,1.2c-0.1,0.2-0.3,0.4-0.4,0.7c0,0.1-0.1,0.1-0.1,0.2l0,0    l0,0l0,0l0,0.1c-0.1,0.1-0.1,0.2-0.2,0.3c-0.2,0.5-0.4,0.9-0.6,1.3c-0.2,0.4-0.4,0.8-0.6,1.1c-0.1,0.2-0.2,0.3-0.3,0.5    c-0.1,0.2-0.2,0.3-0.3,0.4c-0.1,0.1-0.2,0.3-0.3,0.4c-0.1,0.1-0.2,0.2-0.3,0.3c-0.1,0.1-0.2,0.2-0.2,0.2c-0.1,0.1-0.1,0.1-0.2,0.2    c-0.1,0.1-0.1,0.1-0.1,0.1c1.4-1.4,2-2.9,3.1-5c1.2-2.6,3.9-3.9,6.2-3.3C31.8,8.2,32.8,8.8,33.5,9.9C33.5,9.9,33.5,9.9,33.5,9.9z"/>
	</g>
</mask>
<radialGradient id="XMLID_70_" cx="26.3567" cy="8.843" r="11.3195" gradientUnits="userSpaceOnUse">
	<stop offset="0" style="stop-color:#FFFFFF"/>
	<stop offset="1" style="stop-color:#231F20"/>
</radialGradient>
<path id="XMLID_1481_" class="st56" d="M33.5,9.9c0,0,0-0.1-0.1-0.2c0-0.1-0.1-0.1-0.1-0.2c0,0-0.1-0.1-0.1-0.1c0,0-0.1-0.1-0.1-0.1  c-0.2-0.2-0.4-0.4-0.6-0.5c-0.3-0.2-0.6-0.4-1-0.5c-0.2-0.1-0.4-0.1-0.6-0.2C30.7,8,30.4,8,30.2,7.9c-0.4-0.1-0.9,0-1.4,0  c-0.5,0.1-1,0.2-1.4,0.4c-0.5,0.2-0.9,0.5-1.3,0.8c-0.4,0.3-0.8,0.7-1.1,1.2c-0.1,0.2-0.3,0.4-0.4,0.7c0,0.1-0.1,0.1-0.1,0.2l0,0  l0,0l0,0l0,0.1c-0.1,0.1-0.1,0.2-0.2,0.3c-0.2,0.5-0.4,0.9-0.6,1.3c-0.2,0.4-0.4,0.8-0.6,1.1c-0.1,0.2-0.2,0.3-0.3,0.5  c-0.1,0.2-0.2,0.3-0.3,0.4c-0.1,0.1-0.2,0.3-0.3,0.4c-0.1,0.1-0.2,0.2-0.3,0.3c-0.1,0.1-0.2,0.2-0.2,0.2c-0.1,0.1-0.1,0.1-0.2,0.2  c-0.1,0.1-0.1,0.1-0.1,0.1c1.4-1.4,2-2.9,3.1-5c1.2-2.6,3.9-3.9,6.2-3.3C31.8,8.2,32.8,8.8,33.5,9.9C33.5,9.9,33.5,9.9,33.5,9.9z"/>
<linearGradient id="XMLID_71_" gradientUnits="userSpaceOnUse" x1="8.3323" y1="3.9413" x2="19.2534" y2="39.1438">
	<stop offset="0" style="stop-color:#F7DB31"/>
	<stop offset="0.1991" style="stop-color:#F4B840"/>
	<stop offset="0.6344" style="stop-color:#EB4F58"/>
	<stop offset="1" style="stop-color:#8330C5"/>
</linearGradient>
<path id="XMLID_1479_" class="st57" d="M23.3,24.6c0,0-0.3,3.2-3.8,3.9c-0.8,0.2-1.9,0.2-3.1,0c0,0,0,0,0,0c0,0,0.3,1.2,0.3,3v0  c0,1.6-0.3,3.7-1.2,5.8c0,0,0.9-6.8-4.9-10c-5.8-3.2-7-8.4-3.7-12c3.2-3.6,3.8-7.2-0.7-7.6c0,0,0,0,0,0c0,0,0,0,0,0  c0.1,0,0.6-0.4,1.4-0.5c0,0,0,0,0,0c0.2,0,0.4,0,0.6-0.1c0,0,0,0,0,0c0,0,0,0,0,0c0.2-0.3,1.6-1.8,3.6,0c2.2,2,3,4.3,3.3,9.1  c0,0,0,0,0,0c0,0.2,0,0.3,0,0.5c0.2,1.1,0.6,2.1,1.3,3.1c0.7,1,1.5,1.8,2.4,2.5c0.2,0.2,0.4,0.3,0.6,0.5c0.7,0.5,1.4,0.9,2,1.2  C22.2,24.4,22.9,24.6,23.3,24.6z"/>
<linearGradient id="XMLID_72_" gradientUnits="userSpaceOnUse" x1="20.4487" y1="21.885" x2="21.5672" y2="25.4905">
	<stop offset="0" style="stop-color:#F4BA3A"/>
	<stop offset="1" style="stop-color:#F19943"/>
</linearGradient>
<path id="XMLID_1478_" class="st58" d="M20.8,24.1c0.2,0.2,1.1,0.5,1.1,0.5c-1.9-0.2-2.8-1-2.8-1l-0.2-0.9c0,0,0.2,0,0.5,0.1  c0.7,0.5,1.4,0.9,2,1.2c0.8,0.4,1.5,0.6,1.9,0.6C22.4,24.8,20.8,24.1,20.8,24.1z"/>
<linearGradient id="XMLID_73_" gradientUnits="userSpaceOnUse" x1="17.5088" y1="-0.9472" x2="5.0273" y2="42.2179">
	<stop offset="0" style="stop-color:#F7DB31"/>
	<stop offset="0.1991" style="stop-color:#F4B840"/>
	<stop offset="0.6344" style="stop-color:#EB4F58"/>
	<stop offset="1" style="stop-color:#8330C5"/>
</linearGradient>
<path id="XMLID_1477_" class="st59" d="M15.4,37.2c0,0,0.9-6.8-4.9-10c-5.8-3.2-7-8.4-3.7-12c3.2-3.6,3.8-7.1-0.7-7.6c0,0,0,0,0,0  c0,0,0,0,0,0c0,0,0,0,0,0c0.1,0,0.7-0.4,1.4-0.5c0,0,0,0,0,0C7.7,7.1,7.9,7,8.1,7c3.2-0.3,5.3,3.8,3.7,6.5c-1.7,2.9-1.5,4.8-1.5,4.8  c0-0.1-0.8-2.1,0.4-4.6c-0.1,0.1-4.2,6.3,1.1,9.8c0,0-2.1-0.5-2.9-1.9c0,0,0.4,2.4,3.8,4.9C16.1,29,16.2,34.7,15.4,37.2z"/>
<linearGradient id="XMLID_74_" gradientUnits="userSpaceOnUse" x1="4.9666" y1="22.3197" x2="15.6017" y2="22.3197">
	<stop offset="0" style="stop-color:#F7DB31"/>
	<stop offset="0.1991" style="stop-color:#F4B840"/>
	<stop offset="0.6344" style="stop-color:#EB4F58"/>
	<stop offset="1" style="stop-color:#8330C5"/>
</linearGradient>
<path id="XMLID_1476_" class="st60" d="M15.4,37.2c0,0,0.9-6.8-4.9-10c-5.8-3.2-7-8.4-3.7-12c3.2-3.6,3.8-7.1-0.7-7.6l0,0  c0,0,0,0,0,0c0.1,0,2.2-0.6,3.5,0.5c1.3,1.1,0.9,2.8,0.9,2.8s-0.2,0.7-0.2,1.8c0,0-0.2-0.8-0.2-1.5c-0.1,0.8-0.5,2.4-1.7,4  c-1.8,2.2-0.8,5.5-0.8,5.6c0-0.1-0.8-1.9-0.7-3.6c0,0-1.6,3.7,2,6.8c0,0-1.4-0.8-2-1.6c0,0,0.9,2.2,4.6,4.1  C15.1,28.5,16.1,34.9,15.4,37.2z"/>
<linearGradient id="XMLID_77_" gradientUnits="userSpaceOnUse" x1="40.4745" y1="21.1299" x2="10.9441" y2="28.9888">
	<stop offset="0" style="stop-color:#F7DB31"/>
	<stop offset="0.1991" style="stop-color:#F4B840"/>
	<stop offset="0.6344" style="stop-color:#EB4F58"/>
	<stop offset="1" style="stop-color:#8330C5"/>
</linearGradient>
<path id="XMLID_1475_" class="st61" d="M23.3,24.6c0,0-0.5,4.9-6.9,3.8c-0.5-1.8-1.3-2.3-1.4-2.3c3.9,1,6.5-0.5,6.5-0.5  c-0.6,0.8-1.4,0.9-1.4,0.9C22.3,26.4,23.3,24.7,23.3,24.6C23.3,24.6,23.3,24.6,23.3,24.6z"/>
<linearGradient id="XMLID_78_" gradientUnits="userSpaceOnUse" x1="30.4081" y1="23.8089" x2="13.2245" y2="28.382">
	<stop offset="0" style="stop-color:#F7DB31"/>
	<stop offset="0.1991" style="stop-color:#F4B840"/>
	<stop offset="0.6344" style="stop-color:#EB4F58"/>
	<stop offset="1" style="stop-color:#8330C5"/>
</linearGradient>
<path id="XMLID_1474_" class="st62" d="M23.3,24.6c0,0-0.5,4.9-6.9,3.8c-0.5-1.8-1.3-2.3-1.4-2.3c0,0,1.2,0.6,1.5,1.2  c0.2,0.6,2.6,0.4,3.5-0.4c0,0-0.6,0.8-1.2,0.9C18.8,27.8,22.3,27.6,23.3,24.6C23.3,24.6,23.3,24.6,23.3,24.6z"/>
<linearGradient id="XMLID_79_" gradientUnits="userSpaceOnUse" x1="8.1407" y1="11.4279" x2="15.0437" y2="11.4279">
	<stop offset="0" style="stop-color:#F4BA3A"/>
	<stop offset="1" style="stop-color:#F19943"/>
</linearGradient>
<path id="XMLID_1473_" class="st63" d="M15,16.7c-1.9-0.1-4.1-0.3-3.8-0.9c0.6-1,2-1.3,2-1.3c0.8-1.2,0.4-3.5,0.4-3.5  c-0.1,1.2-1,2.3-1,2.3c1.2-2.2,0.1-4.5,0.1-4.5c0.3,0.9-0.1,2-0.1,2c0.2-1.6-0.4-2.8-1.9-4C9.5,5.7,8.2,6.9,8.1,7c0,0,0,0,0,0  c0,0,0,0,0,0C8.4,6.7,9.7,5.3,11.7,7c2.2,2,3,4.3,3.3,9.1c0,0,0,0,0,0C15,16.3,15,16.5,15,16.7z"/>
<defs>
	<filter id="Adobe_OpacityMaskFilter_8_" filterUnits="userSpaceOnUse" x="8.1" y="6.2" width="6.8" height="10">
		<feFlood style="flood-color:white;flood-opacity:1" result="back"/>
		<feBlend in="SourceGraphic" in2="back" mode="normal"/>
	</filter>
</defs>
<mask maskUnits="userSpaceOnUse" x="8.1" y="6.2" width="6.8" height="10" id="XMLID_80_">
	<g id="XMLID_61_" class="st64">
		<defs>
			<filter id="Adobe_OpacityMaskFilter_9_" filterUnits="userSpaceOnUse" x="8.1" y="6.2" width="6.8" height="10">
				<feFlood style="flood-color:white;flood-opacity:1" result="back"/>
				<feBlend in="SourceGraphic" in2="back" mode="normal"/>
			</filter>
		</defs>
		<mask maskUnits="userSpaceOnUse" x="8.1" y="6.2" width="6.8" height="10" id="XMLID_80_">
			<g id="XMLID_189_" class="st65">
			</g>
		</mask>
		<radialGradient id="XMLID_81_" cx="10.474" cy="6.3206" r="16.3457" gradientUnits="userSpaceOnUse">
			<stop offset="0" style="stop-color:#FFFFFF"/>
			<stop offset="1" style="stop-color:#000000"/>
		</radialGradient>
		<path id="XMLID_62_" class="st66" d="M15,16.2c0,0,0-0.1,0-0.2c0-0.1,0-0.3,0-0.4c0-0.1,0-0.2,0-0.3c0-0.1,0-0.2,0-0.4    c0-0.1,0-0.3,0-0.4c0-0.1,0-0.3-0.1-0.5c0-0.1,0-0.2,0-0.2c0-0.1,0-0.2,0-0.3c0-0.2-0.1-0.4-0.1-0.5c0-0.2-0.1-0.4-0.1-0.6    c0-0.2-0.1-0.4-0.1-0.6l0-0.1l0-0.1c0,0,0-0.1,0-0.1c0-0.1-0.1-0.2-0.1-0.3c0-0.1-0.1-0.2-0.1-0.3c0-0.1-0.1-0.2-0.1-0.3    c0-0.1-0.1-0.2-0.1-0.3c0-0.1-0.1-0.2-0.1-0.3c-0.1-0.2-0.2-0.4-0.3-0.6c-0.1-0.1-0.1-0.2-0.2-0.3c-0.1-0.1-0.1-0.2-0.2-0.3    L13,8.7l-0.1-0.1c-0.1-0.1-0.1-0.2-0.2-0.3c-0.1-0.1-0.1-0.2-0.2-0.2c0,0-0.1-0.1-0.1-0.1l-0.1-0.1l-0.1-0.1    c-0.1-0.1-0.1-0.2-0.2-0.2c0,0-0.1-0.1-0.1-0.1c0,0-0.1-0.1-0.1-0.1c-0.1-0.1-0.1-0.1-0.2-0.2l0,0l0,0l0,0l0,0l-0.1,0    c0,0-0.1-0.1-0.1-0.1c-0.1-0.1-0.3-0.2-0.5-0.3c-0.1-0.1-0.2-0.1-0.2-0.1c-0.1,0-0.2-0.1-0.2-0.1c-0.2-0.1-0.3-0.1-0.5-0.1    c-0.3-0.1-0.6,0-0.9,0.1C9,6.4,8.8,6.5,8.6,6.6C8.4,6.7,8.3,6.8,8.2,6.9C8.2,6.9,8.2,7,8.1,7C8.4,6.7,9.7,5.3,11.7,7    C13.9,9,14.8,11.3,15,16.2z"/>
	</g>
</mask>
<radialGradient id="XMLID_84_" cx="10.474" cy="6.3206" r="16.3457" gradientUnits="userSpaceOnUse">
	<stop offset="0" style="stop-color:#FFFFFF"/>
	<stop offset="1" style="stop-color:#231F20"/>
</radialGradient>
<path id="XMLID_1472_" class="st67" d="M15,16.2c0,0,0-0.1,0-0.2c0-0.1,0-0.3,0-0.4c0-0.1,0-0.2,0-0.3c0-0.1,0-0.2,0-0.4  c0-0.1,0-0.3,0-0.4c0-0.1,0-0.3-0.1-0.5c0-0.1,0-0.2,0-0.2c0-0.1,0-0.2,0-0.3c0-0.2-0.1-0.4-0.1-0.5c0-0.2-0.1-0.4-0.1-0.6  c0-0.2-0.1-0.4-0.1-0.6l0-0.1l0-0.1c0,0,0-0.1,0-0.1c0-0.1-0.1-0.2-0.1-0.3c0-0.1-0.1-0.2-0.1-0.3c0-0.1-0.1-0.2-0.1-0.3  c0-0.1-0.1-0.2-0.1-0.3c0-0.1-0.1-0.2-0.1-0.3c-0.1-0.2-0.2-0.4-0.3-0.6c-0.1-0.1-0.1-0.2-0.2-0.3c-0.1-0.1-0.1-0.2-0.2-0.3L13,8.7  l-0.1-0.1c-0.1-0.1-0.1-0.2-0.2-0.3c-0.1-0.1-0.1-0.2-0.2-0.2c0,0-0.1-0.1-0.1-0.1l-0.1-0.1l-0.1-0.1c-0.1-0.1-0.1-0.2-0.2-0.2  c0,0-0.1-0.1-0.1-0.1c0,0-0.1-0.1-0.1-0.1c-0.1-0.1-0.1-0.1-0.2-0.2l0,0l0,0l0,0l0,0l-0.1,0c0,0-0.1-0.1-0.1-0.1  c-0.1-0.1-0.3-0.2-0.5-0.3c-0.1-0.1-0.2-0.1-0.2-0.1c-0.1,0-0.2-0.1-0.2-0.1c-0.2-0.1-0.3-0.1-0.5-0.1c-0.3-0.1-0.6,0-0.9,0.1  C9,6.4,8.8,6.5,8.6,6.6C8.4,6.7,8.3,6.8,8.2,6.9C8.2,6.9,8.2,7,8.1,7C8.4,6.7,9.7,5.3,11.7,7C13.9,9,14.8,11.3,15,16.2z"/>
<linearGradient id="XMLID_85_" gradientUnits="userSpaceOnUse" x1="9.021" y1="16.812" x2="27.3642" y2="28.1384">
	<stop offset="0" style="stop-color:#F7DB31"/>
	<stop offset="0.1991" style="stop-color:#F4B840"/>
	<stop offset="0.6344" style="stop-color:#EB4F58"/>
	<stop offset="1" style="stop-color:#8330C5"/>
</linearGradient>
<path id="XMLID_1471_" class="st68" d="M21.4,24c-0.2,0.1-0.3,0.2-0.5,0.3c-1.2,0.6-2.6,0.6-3.9,0.5c-2-0.2-4.5-0.9-5.8-2.5  c-1.8-2.3-2-6.5,1.5-7.1c0.4-0.1,0.9,0,1.2,0.1c0,0,0,0,0,0c0.5,0.2,0.9,0.5,1.2,0.9c0.1,0.2,0.2,0.3,0.3,0.5  c0.3,0.8,0.5,1.8,0.8,2.6c0.1,0.2,0.1,0.3,0.2,0.4c0.5,1.1,1.4,1.9,2.4,2.5C19.6,23,20.5,23.6,21.4,24z"/>
<linearGradient id="XMLID_86_" gradientUnits="userSpaceOnUse" x1="9.9892" y1="14.9616" x2="19.9679" y2="24.4968">
	<stop offset="0" style="stop-color:#F7DB31"/>
	<stop offset="0.1991" style="stop-color:#F4B840"/>
	<stop offset="0.6344" style="stop-color:#EB4F58"/>
	<stop offset="1" style="stop-color:#8330C5"/>
</linearGradient>
<path id="XMLID_1470_" class="st69" d="M23,22c-0.2,0.4-0.6,0.7-0.9,1c-1.1,0.8-2.5,1-3.8,1.1c-2,0.1-4.6-0.3-6.1-1.7  c-1.5-1.4-2.4-4-1.5-5.7c0.3-0.7,1-1.2,1.9-1.5c0.4-0.1,0.8-0.2,1.3-0.1c0,0,0,0,0,0c0,0,0,0,0,0c0,0,0,0,0,0c0,0,0,0,0,0  c0.7,0.1,1.3,0.5,1.6,1.2c0.5,0.8,0.7,1.7,1.2,2.4c1.2,2,3.3,3,5.6,3.3c0,0,0.3,0,0.5,0.1c0,0,0,0,0,0C22.8,22,22.9,22,23,22  C23,22,23,22,23,22z"/>
<polygon id="XMLID_1469_" class="st52" points="13.8,15.2 13.8,15.2 13.8,15.2 13.8,15.2 13.8,15.2 13.8,15.2 13.8,15.2 13.8,15.2  13.8,15.2 13.8,15.2 13.8,15.2 "/>
<path id="XMLID_1468_" class="st52" d="M13.8,15L13.8,15L13.8,15L13.8,15C13.8,15,13.8,15,13.8,15C13.8,15,13.8,15,13.8,15L13.8,15  C13.8,15,13.8,15,13.8,15C13.8,15,13.8,15,13.8,15C13.8,15,13.8,15,13.8,15C13.8,15,13.8,15,13.8,15C13.8,15,13.8,15,13.8,15  C13.9,15,13.9,15,13.8,15L13.8,15z"/>
<linearGradient id="XMLID_87_" gradientUnits="userSpaceOnUse" x1="7.3855" y1="12.4736" x2="19.384" y2="23.9389">
	<stop offset="0" style="stop-color:#F7DB31"/>
	<stop offset="0.1991" style="stop-color:#F4B840"/>
	<stop offset="0.6344" style="stop-color:#EB4F58"/>
	<stop offset="1" style="stop-color:#8330C5"/>
</linearGradient>
<path id="XMLID_1467_" class="st70" d="M23,22c-0.2,0.4-0.6,0.7-0.9,1c-1.1,0.8-2.5,1-3.8,1.1c-2,0.1-4.6-0.3-6.1-1.7  c-2.2-2-2.9-6.2,0.4-7.2c0.4-0.1,0.7-0.1,1.1-0.1c0,0,0.1,0,0.1,0c-0.7-0.1-2.2,1-0.9,3.1c1.6,2.7,4.2,2.6,4.2,2.6s-2,0.4-3.5-0.3  c0,0,2.3,2.3,6.1,1.7c0,0-1.1,0.6-2.6,0.4C17,22.5,20.6,24,23,22C23,22,23,22,23,22z"/>
<linearGradient id="XMLID_88_" gradientUnits="userSpaceOnUse" x1="9.4455" y1="16.6303" x2="27.8506" y2="27.9949">
	<stop offset="0" style="stop-color:#F7DB31"/>
	<stop offset="0.1991" style="stop-color:#F4B840"/>
	<stop offset="0.6344" style="stop-color:#EB4F58"/>
	<stop offset="1" style="stop-color:#8330C5"/>
</linearGradient>
<path id="XMLID_1466_" class="st71" d="M23,22c-0.2,0.4-0.6,0.7-0.9,1c-1.1,0.8-2.5,1-3.8,1.1c-2,0.1-4.6-0.3-6.1-1.7  c-2.2-2-2.9-6.2,0.4-7.2c0.4-0.1,0.7-0.1,1.1-0.1c-0.3,0-1.3,0-2.1,1c-1,1.3,0.4,3,0.4,3c0,0-0.9-0.8-1.1-1.9c0,0-0.4,3,3.5,4.7  c-0.1,0-1.6-0.3-2.4-0.9c0,0,2.1,2.8,6.5,2.2c0,0-1.1,0.5-2.5,0.3C16.1,23.5,21.2,24.6,23,22z"/>
<path id="XMLID_1463_" class="st8" d="M16.9,19.8c0.2,0.6,1.1,1.2,1.2,1.3c-2.7-1.3-2.5-3.5-2.5-3.6c-0.3,0.8,0,1.7,0.1,1.8  c0,0-0.5-0.8-0.5-2.2c0-1.4-1.2-1.9-1.3-1.9c0.7,0.1,1.3,0.5,1.7,1.2c0.5,0.8,0.7,1.7,1.2,2.4c1.2,2,3.3,3,5.6,3.3  c0,0,0.3,0,0.5,0.1C18.8,22.1,16.9,19.8,16.9,19.8z"/>
<defs>
	<filter id="Adobe_OpacityMaskFilter_10_" filterUnits="userSpaceOnUse" x="10.6" y="15" width="11.6" height="6.9">
		<feFlood style="flood-color:white;flood-opacity:1" result="back"/>
		<feBlend in="SourceGraphic" in2="back" mode="normal"/>
	</filter>
</defs>
<mask maskUnits="userSpaceOnUse" x="10.6" y="15" width="11.6" height="6.9" id="XMLID_89_">
	<g id="XMLID_48_" class="st72">
		<defs>
			<filter id="Adobe_OpacityMaskFilter_11_" filterUnits="userSpaceOnUse" x="10.6" y="15" width="11.6" height="6.9">
				<feFlood style="flood-color:white;flood-opacity:1" result="back"/>
				<feBlend in="SourceGraphic" in2="back" mode="normal"/>
			</filter>
		</defs>
		<mask maskUnits="userSpaceOnUse" x="10.6" y="15" width="11.6" height="6.9" id="XMLID_89_">
			<g id="XMLID_184_" class="st73">
			</g>
		</mask>
		<radialGradient id="XMLID_90_" cx="13.5785" cy="15.0243" r="16.7689" gradientUnits="userSpaceOnUse">
			<stop offset="0" style="stop-color:#FFFFFF"/>
			<stop offset="1" style="stop-color:#000000"/>
		</radialGradient>
		<path id="XMLID_49_" class="st74" d="M22.2,22l-0.4,0c-0.1,0-0.2,0-0.4,0c-0.1,0-0.2,0-0.4-0.1l-0.2,0l-0.2,0    c-0.2-0.1-0.5-0.1-0.7-0.2l-0.3-0.1l-0.3-0.1c-0.1,0-0.2-0.1-0.3-0.2c-0.1-0.1-0.2-0.1-0.3-0.2l-0.2-0.1l-0.2-0.1    c-0.1-0.1-0.2-0.1-0.3-0.2L18,20.4c0,0-0.1-0.1-0.1-0.1c-0.1-0.1-0.2-0.2-0.3-0.2l-0.3-0.3c-0.1-0.1-0.2-0.2-0.2-0.3L17,19.5    c0,0,0,0-0.1-0.1l-0.1-0.1c0,0-0.1-0.1-0.1-0.1L16.6,19l-0.1-0.2l0,0l0,0l0,0l0-0.1c-0.1-0.1-0.1-0.2-0.2-0.3    c-0.2-0.4-0.4-0.9-0.6-1.3c0-0.1-0.1-0.2-0.2-0.3c-0.1-0.1-0.1-0.2-0.2-0.3c-0.1-0.2-0.2-0.4-0.4-0.5c-0.1-0.1-0.2-0.2-0.3-0.2    c0,0-0.1-0.1-0.1-0.1c0,0-0.1-0.1-0.1-0.1c-0.1-0.1-0.2-0.1-0.3-0.1l-0.1,0c0,0-0.1,0-0.1,0c0,0-0.1,0-0.1,0l0,0l0,0l0,0    c0,0,0,0,0,0l0,0l-0.1,0c0,0,0,0,0,0l0,0l0,0c0,0,0,0,0,0h0c0,0,0,0,0,0c-0.3-0.1-0.6-0.1-0.9,0c-0.1,0-0.2,0-0.2,0l-0.1,0l0,0    l0,0l0,0l-0.1,0c-0.1,0-0.1,0.1-0.2,0.1c-0.1,0-0.1,0.1-0.2,0.1c-0.1,0-0.1,0.1-0.2,0.1c-0.1,0-0.1,0.1-0.2,0.1    c-0.1,0-0.1,0.1-0.2,0.1c-0.1,0-0.1,0.1-0.2,0.2c-0.1,0.1-0.1,0.1-0.2,0.2L11,16.2c0,0,0,0.1-0.1,0.1c0,0,0,0.1-0.1,0.1    s0,0.1-0.1,0.1c0,0.1-0.1,0.1-0.1,0.2c0.3-0.7,1-1.2,1.9-1.5c0.4-0.1,0.8-0.2,1.3-0.1c0,0,0,0,0,0c0,0,0,0,0,0c0,0,0,0,0,0    c0,0,0,0,0,0c0.7,0.1,1.3,0.5,1.6,1.2c0.5,0.8,0.7,1.7,1.2,2.4C17.8,20.7,20,21.7,22.2,22z"/>
	</g>
</mask>
<radialGradient id="XMLID_91_" cx="13.5785" cy="15.0243" r="16.7689" gradientUnits="userSpaceOnUse">
	<stop offset="0" style="stop-color:#FFFFFF"/>
	<stop offset="1" style="stop-color:#231F20"/>
</radialGradient>
<path id="XMLID_1461_" class="st75" d="M22.2,22l-0.4,0c-0.1,0-0.2,0-0.4,0c-0.1,0-0.2,0-0.4-0.1l-0.2,0l-0.2,0  c-0.2-0.1-0.5-0.1-0.7-0.2l-0.3-0.1l-0.3-0.1c-0.1,0-0.2-0.1-0.3-0.2c-0.1-0.1-0.2-0.1-0.3-0.2l-0.2-0.1l-0.2-0.1  c-0.1-0.1-0.2-0.1-0.3-0.2L18,20.4c0,0-0.1-0.1-0.1-0.1c-0.1-0.1-0.2-0.2-0.3-0.2l-0.3-0.3c-0.1-0.1-0.2-0.2-0.2-0.3L17,19.5  c0,0,0,0-0.1-0.1l-0.1-0.1c0,0-0.1-0.1-0.1-0.1L16.6,19l-0.1-0.2l0,0l0,0l0,0l0-0.1c-0.1-0.1-0.1-0.2-0.2-0.3  c-0.2-0.4-0.4-0.9-0.6-1.3c0-0.1-0.1-0.2-0.2-0.3c-0.1-0.1-0.1-0.2-0.2-0.3c-0.1-0.2-0.2-0.4-0.4-0.5c-0.1-0.1-0.2-0.2-0.3-0.2  c0,0-0.1-0.1-0.1-0.1c0,0-0.1-0.1-0.1-0.1c-0.1-0.1-0.2-0.1-0.3-0.1l-0.1,0c0,0-0.1,0-0.1,0c0,0-0.1,0-0.1,0l0,0l0,0l0,0  c0,0,0,0,0,0l0,0l-0.1,0c0,0,0,0,0,0l0,0l0,0c0,0,0,0,0,0h0c0,0,0,0,0,0c-0.3-0.1-0.6-0.1-0.9,0c-0.1,0-0.2,0-0.2,0l-0.1,0l0,0l0,0  l0,0l-0.1,0c-0.1,0-0.1,0.1-0.2,0.1c-0.1,0-0.1,0.1-0.2,0.1c-0.1,0-0.1,0.1-0.2,0.1c-0.1,0-0.1,0.1-0.2,0.1c-0.1,0-0.1,0.1-0.2,0.1  c-0.1,0-0.1,0.1-0.2,0.2c-0.1,0.1-0.1,0.1-0.2,0.2L11,16.2c0,0,0,0.1-0.1,0.1c0,0,0,0.1-0.1,0.1s0,0.1-0.1,0.1  c0,0.1-0.1,0.1-0.1,0.2c0.3-0.7,1-1.2,1.9-1.5c0.4-0.1,0.8-0.2,1.3-0.1c0,0,0,0,0,0c0,0,0,0,0,0c0,0,0,0,0,0c0,0,0,0,0,0  c0.7,0.1,1.3,0.5,1.6,1.2c0.5,0.8,0.7,1.7,1.2,2.4C17.8,20.7,20,21.7,22.2,22z"/>
<linearGradient id="XMLID_92_" gradientUnits="userSpaceOnUse" x1="15.0814" y1="31.6764" x2="16.6486" y2="31.6764">
	<stop offset="0" style="stop-color:#F4BA3A"/>
	<stop offset="1" style="stop-color:#F19943"/>
</linearGradient>
<path id="XMLID_1458_" class="st76" d="M16.6,31.4L16.6,31.4c0,1.6-0.3,3.7-1.2,5.8c0.5-1.1,0.8-2.3,0.9-3.3c0,0,0,0,0,0  c0.4-2.9-0.2-5.3-0.2-5.3c0,0.5-0.1,1.6-0.2,1.7c0-0.1,0.1-1,0-2c0,0,0,0,0,0c-0.1-1.1-0.8-2.1-0.8-2.1c0.2,0.2,0.9,0.8,1.3,2.3  c0,0,0,0,0,0C16.4,28.5,16.7,29.7,16.6,31.4z"/>
<defs>
	<filter id="Adobe_OpacityMaskFilter_12_" filterUnits="userSpaceOnUse" x="15.1" y="26.2" width="1.6" height="11">
		<feFlood style="flood-color:white;flood-opacity:1" result="back"/>
		<feBlend in="SourceGraphic" in2="back" mode="normal"/>
	</filter>
</defs>
<mask maskUnits="userSpaceOnUse" x="15.1" y="26.2" width="1.6" height="11" id="XMLID_93_">
	<g id="XMLID_38_" class="st77">
		<defs>
			<filter id="Adobe_OpacityMaskFilter_13_" filterUnits="userSpaceOnUse" x="15.1" y="26.2" width="1.6" height="11">
				<feFlood style="flood-color:white;flood-opacity:1" result="back"/>
				<feBlend in="SourceGraphic" in2="back" mode="normal"/>
			</filter>
		</defs>
		<mask maskUnits="userSpaceOnUse" x="15.1" y="26.2" width="1.6" height="11" id="XMLID_93_">
			<g id="XMLID_178_" class="st78">
			</g>
		</mask>
		<radialGradient id="XMLID_94_" cx="15.8145" cy="27.2111" r="11.6607" gradientUnits="userSpaceOnUse">
			<stop offset="0" style="stop-color:#FFFFFF"/>
			<stop offset="1" style="stop-color:#000000"/>
		</radialGradient>
		<path id="XMLID_39_" class="st79" d="M16.6,31.4L16.6,31.4c0,1.6-0.3,3.7-1.2,5.8l0.1-0.3l0-0.1l0-0.1l0.1-0.3l0.1-0.3l0-0.1    l0-0.1l0.1-0.3c0-0.2,0.1-0.4,0.1-0.5c0-0.1,0-0.2,0.1-0.3l0.1-0.3c0-0.1,0-0.2,0.1-0.3c0-0.1,0-0.2,0-0.3c0,0,0-0.1,0-0.1    c0,0,0,0,0,0c0-0.1,0-0.1,0-0.2l0-0.3c0-0.2,0-0.4,0.1-0.6c0-0.2,0-0.4,0-0.6l0-0.3l0-0.3c0-0.1,0-0.2,0-0.3l0-0.1v-0.2    c0-0.1,0-0.2,0-0.3c0-0.1,0-0.2,0-0.3c0-0.2,0-0.4,0-0.6c0-0.2,0-0.4,0-0.6c0-0.2,0-0.4-0.1-0.5c0-0.2-0.1-0.4-0.1-0.5l0-0.1l0,0    l0,0c0-0.1,0-0.1,0-0.2l0-0.2c0-0.1,0-0.1-0.1-0.2c0-0.1,0-0.1-0.1-0.2L16,27.5c0-0.1,0-0.1-0.1-0.2c0-0.1,0-0.1-0.1-0.2    c0,0,0-0.1-0.1-0.1c0,0-0.1-0.1-0.1-0.1c0,0-0.1-0.1-0.1-0.1c0,0-0.1-0.1-0.1-0.1c0,0-0.1-0.1-0.1-0.1c0,0-0.1-0.1-0.1-0.1    c0,0-0.1-0.1-0.1-0.1c0,0-0.1-0.1-0.1-0.1c0.2,0.2,0.9,0.8,1.3,2.3c0,0,0,0,0,0C16.4,28.5,16.7,29.7,16.6,31.4z"/>
	</g>
</mask>
<radialGradient id="XMLID_95_" cx="15.8145" cy="27.2111" r="11.6607" gradientUnits="userSpaceOnUse">
	<stop offset="0" style="stop-color:#FFFFFF"/>
	<stop offset="1" style="stop-color:#231F20"/>
</radialGradient>
<path id="XMLID_1457_" class="st80" d="M16.6,31.4L16.6,31.4c0,1.6-0.3,3.7-1.2,5.8l0.1-0.3l0-0.1l0-0.1l0.1-0.3l0.1-0.3l0-0.1  l0-0.1l0.1-0.3c0-0.2,0.1-0.4,0.1-0.5c0-0.1,0-0.2,0.1-0.3l0.1-0.3c0-0.1,0-0.2,0.1-0.3c0-0.1,0-0.2,0-0.3c0,0,0-0.1,0-0.1  c0,0,0,0,0,0c0-0.1,0-0.1,0-0.2l0-0.3c0-0.2,0-0.4,0.1-0.6c0-0.2,0-0.4,0-0.6l0-0.3l0-0.3c0-0.1,0-0.2,0-0.3l0-0.1v-0.2  c0-0.1,0-0.2,0-0.3c0-0.1,0-0.2,0-0.3c0-0.2,0-0.4,0-0.6c0-0.2,0-0.4,0-0.6c0-0.2,0-0.4-0.1-0.5c0-0.2-0.1-0.4-0.1-0.5l0-0.1l0,0  l0,0c0-0.1,0-0.1,0-0.2l0-0.2c0-0.1,0-0.1-0.1-0.2c0-0.1,0-0.1-0.1-0.2L16,27.5c0-0.1,0-0.1-0.1-0.2c0-0.1,0-0.1-0.1-0.2  c0,0,0-0.1-0.1-0.1c0,0-0.1-0.1-0.1-0.1c0,0-0.1-0.1-0.1-0.1c0,0-0.1-0.1-0.1-0.1c0,0-0.1-0.1-0.1-0.1c0,0-0.1-0.1-0.1-0.1  c0,0-0.1-0.1-0.1-0.1c0,0-0.1-0.1-0.1-0.1c0.2,0.2,0.9,0.8,1.3,2.3c0,0,0,0,0,0C16.4,28.5,16.7,29.7,16.6,31.4z"/>
<defs>
	<filter id="Adobe_OpacityMaskFilter_14_" filterUnits="userSpaceOnUse" x="8.1" y="2.5" width="6.3" height="4.3">
		<feFlood style="flood-color:white;flood-opacity:1" result="back"/>
		<feBlend in="SourceGraphic" in2="back" mode="normal"/>
	</filter>
</defs>
<mask maskUnits="userSpaceOnUse" x="8.1" y="2.5" width="6.3" height="4.3" id="XMLID_96_">
	<g id="XMLID_32_" class="st81">
		<defs>
			<filter id="Adobe_OpacityMaskFilter_15_" filterUnits="userSpaceOnUse" x="8.1" y="2.5" width="6.3" height="4.3">
				<feFlood style="flood-color:white;flood-opacity:1" result="back"/>
				<feBlend in="SourceGraphic" in2="back" mode="normal"/>
			</filter>
		</defs>
		<mask maskUnits="userSpaceOnUse" x="8.1" y="2.5" width="6.3" height="4.3" id="XMLID_96_">
			<g id="XMLID_173_" class="st82">
			</g>
		</mask>
		<radialGradient id="XMLID_97_" cx="10.9591" cy="3.5349" r="5.0344" gradientUnits="userSpaceOnUse">
			<stop offset="0" style="stop-color:#FFFFFF"/>
			<stop offset="1" style="stop-color:#000000"/>
		</radialGradient>
		<path id="XMLID_33_" class="st83" d="M14.4,2.5c-0.1,0.1-0.2,0.3-0.4,0.4c-0.1,0.1-0.3,0.2-0.4,0.3c-0.2,0.1-0.3,0.1-0.5,0.2    c-0.2,0-0.3,0.1-0.5,0.1c-0.3,0-0.7,0-1,0.1c-0.2,0-0.3,0-0.5,0.1c-0.2,0-0.3,0.1-0.5,0.1c-0.1,0-0.2,0.1-0.2,0.1    c0,0-0.1,0-0.1,0.1l-0.1,0c0,0,0,0-0.1,0C9.9,4,9.8,4.1,9.7,4.2C9.4,4.4,9.2,4.6,9,4.9C8.8,5.2,8.6,5.5,8.5,5.8    C8.4,5.9,8.3,6.1,8.3,6.3C8.2,6.4,8.2,6.6,8.1,6.7c0,0,0,0,0,0c0,0,0,0,0,0l0,0l0,0l0,0l0,0l0,0h0l0,0l0,0c0,0,0,0,0,0    c0,0,0,0,0,0c0,0,0,0,0,0c0.1-0.3,0.6-2.3,2-3C11.9,2.9,13.1,3.9,14.4,2.5z"/>
	</g>
</mask>
<radialGradient id="XMLID_98_" cx="10.9591" cy="3.5349" r="5.0344" gradientUnits="userSpaceOnUse">
	<stop offset="0" style="stop-color:#FFFFFF"/>
	<stop offset="1" style="stop-color:#231F20"/>
</radialGradient>
<path id="XMLID_1456_" class="st84" d="M14.4,2.5c-0.1,0.1-0.2,0.3-0.4,0.4c-0.1,0.1-0.3,0.2-0.4,0.3c-0.2,0.1-0.3,0.1-0.5,0.2  c-0.2,0-0.3,0.1-0.5,0.1c-0.3,0-0.7,0-1,0.1c-0.2,0-0.3,0-0.5,0.1c-0.2,0-0.3,0.1-0.5,0.1c-0.1,0-0.2,0.1-0.2,0.1c0,0-0.1,0-0.1,0.1  l-0.1,0c0,0,0,0-0.1,0C9.9,4,9.8,4.1,9.7,4.2C9.4,4.4,9.2,4.6,9,4.9C8.8,5.2,8.6,5.5,8.5,5.8C8.4,5.9,8.3,6.1,8.3,6.3  C8.2,6.4,8.2,6.6,8.1,6.7c0,0,0,0,0,0c0,0,0,0,0,0l0,0l0,0l0,0l0,0l0,0h0l0,0l0,0c0,0,0,0,0,0c0,0,0,0,0,0c0,0,0,0,0,0  c0.1-0.3,0.6-2.3,2-3C11.9,2.9,13.1,3.9,14.4,2.5z"/>
<defs>
	<filter id="Adobe_OpacityMaskFilter_16_" filterUnits="userSpaceOnUse" x="5" y="11.7" width="4" height="9">
		<feFlood style="flood-color:white;flood-opacity:1" result="back"/>
		<feBlend in="SourceGraphic" in2="back" mode="normal"/>
	</filter>
</defs>
<mask maskUnits="userSpaceOnUse" x="5" y="11.7" width="4" height="9" id="XMLID_99_">
	<g id="XMLID_26_" class="st85">
		<defs>
			<filter id="Adobe_OpacityMaskFilter_17_" filterUnits="userSpaceOnUse" x="5" y="11.7" width="4" height="9">
				<feFlood style="flood-color:white;flood-opacity:1" result="back"/>
				<feBlend in="SourceGraphic" in2="back" mode="normal"/>
			</filter>
		</defs>
		<mask maskUnits="userSpaceOnUse" x="5" y="11.7" width="4" height="9" id="XMLID_99_">
			<g id="XMLID_168_" class="st86">
			</g>
		</mask>
		<radialGradient id="XMLID_100_" cx="7.0554" cy="14.7193" r="9.5094" gradientUnits="userSpaceOnUse">
			<stop offset="0" style="stop-color:#FFFFFF"/>
			<stop offset="1" style="stop-color:#000000"/>
		</radialGradient>
		<path id="XMLID_27_" class="st87" d="M9,11.7c0,0,0,0,0,0.1c0,0.1-0.1,0.2-0.1,0.3c0,0.1-0.1,0.1-0.1,0.2c0,0.1-0.1,0.2-0.1,0.2    c-0.1,0.2-0.2,0.4-0.3,0.6c-0.1,0.1-0.1,0.2-0.2,0.3c-0.1,0.1-0.1,0.2-0.2,0.3c-0.2,0.2-0.3,0.5-0.5,0.7c-0.1,0.1-0.2,0.2-0.3,0.4    c0,0.1-0.1,0.1-0.1,0.2C7,15.1,7,15.2,6.9,15.2c-0.1,0.1-0.2,0.2-0.3,0.4c0,0.1-0.1,0.1-0.1,0.2c0,0.1-0.1,0.1-0.1,0.2l-0.1,0.2    c0,0,0,0.1-0.1,0.1l-0.1,0.1C6,16.4,6,16.5,6,16.6c0,0.1-0.1,0.1-0.1,0.2c-0.1,0.1-0.1,0.3-0.2,0.4c0,0.1-0.1,0.1-0.1,0.2    c0,0.1-0.1,0.1-0.1,0.2c-0.1,0.3-0.2,0.5-0.3,0.8c0,0.1,0,0.1,0,0.2c0,0.1,0,0.1,0,0.2c0,0.1,0,0.1,0,0.2c0,0.1,0,0.1,0,0.2    c0,0.1,0,0.1,0,0.2c0,0.1,0,0.1,0,0.2c0,0.1,0,0.1,0,0.2c0,0.1,0,0.1,0,0.1c0,0.1,0,0.2,0,0.3c0,0.1,0,0.2,0,0.2    c0,0.1,0,0.1,0,0.2c0,0.1,0,0.1,0,0.1c0,0.1,0,0.1,0,0.1s0,0,0,0c-0.3-1.9,0.3-3.8,1.7-5.4C7.8,14,8.6,12.8,9,11.7    C9,11.7,9,11.7,9,11.7z"/>
	</g>
</mask>
<radialGradient id="XMLID_101_" cx="7.0554" cy="14.7193" r="9.5094" gradientUnits="userSpaceOnUse">
	<stop offset="0" style="stop-color:#FFFFFF"/>
	<stop offset="1" style="stop-color:#231F20"/>
</radialGradient>
<path id="XMLID_1455_" class="st88" d="M9,11.7c0,0,0,0,0,0.1c0,0.1-0.1,0.2-0.1,0.3c0,0.1-0.1,0.1-0.1,0.2c0,0.1-0.1,0.2-0.1,0.2  c-0.1,0.2-0.2,0.4-0.3,0.6c-0.1,0.1-0.1,0.2-0.2,0.3c-0.1,0.1-0.1,0.2-0.2,0.3c-0.2,0.2-0.3,0.5-0.5,0.7c-0.1,0.1-0.2,0.2-0.3,0.4  c0,0.1-0.1,0.1-0.1,0.2C7,15.1,7,15.2,6.9,15.2c-0.1,0.1-0.2,0.2-0.3,0.4c0,0.1-0.1,0.1-0.1,0.2c0,0.1-0.1,0.1-0.1,0.2l-0.1,0.2  c0,0,0,0.1-0.1,0.1l-0.1,0.1C6,16.4,6,16.5,6,16.6c0,0.1-0.1,0.1-0.1,0.2c-0.1,0.1-0.1,0.3-0.2,0.4c0,0.1-0.1,0.1-0.1,0.2  c0,0.1-0.1,0.1-0.1,0.2c-0.1,0.3-0.2,0.5-0.3,0.8c0,0.1,0,0.1,0,0.2c0,0.1,0,0.1,0,0.2c0,0.1,0,0.1,0,0.2c0,0.1,0,0.1,0,0.2  c0,0.1,0,0.1,0,0.2c0,0.1,0,0.1,0,0.2c0,0.1,0,0.1,0,0.2c0,0.1,0,0.1,0,0.1c0,0.1,0,0.2,0,0.3c0,0.1,0,0.2,0,0.2c0,0.1,0,0.1,0,0.2  c0,0.1,0,0.1,0,0.1c0,0.1,0,0.1,0,0.1s0,0,0,0c-0.3-1.9,0.3-3.8,1.7-5.4C7.8,14,8.6,12.8,9,11.7C9,11.7,9,11.7,9,11.7z"/>
<defs>
	<filter id="Adobe_OpacityMaskFilter_18_" filterUnits="userSpaceOnUse" x="19" y="11.1" width="11.5" height="6.5">
		<feFlood style="flood-color:white;flood-opacity:1" result="back"/>
		<feBlend in="SourceGraphic" in2="back" mode="normal"/>
	</filter>
</defs>
<mask maskUnits="userSpaceOnUse" x="19" y="11.1" width="11.5" height="6.5" id="XMLID_102_">
	<g id="XMLID_20_" class="st89">
		<defs>
			<filter id="Adobe_OpacityMaskFilter_19_" filterUnits="userSpaceOnUse" x="19" y="11.1" width="11.5" height="6.5">
				<feFlood style="flood-color:white;flood-opacity:1" result="back"/>
				<feBlend in="SourceGraphic" in2="back" mode="normal"/>
			</filter>
		</defs>
		<mask maskUnits="userSpaceOnUse" x="19" y="11.1" width="11.5" height="6.5" id="XMLID_102_">
			<g id="XMLID_163_" class="st90">
			</g>
		</mask>
		<radialGradient id="XMLID_103_" cx="27.641" cy="11.467" r="9.7997" gradientUnits="userSpaceOnUse">
			<stop offset="0" style="stop-color:#FFFFFF"/>
			<stop offset="1" style="stop-color:#000000"/>
		</radialGradient>
		<path id="XMLID_21_" class="st91" d="M30.5,11.7c0,0-0.1,0-0.1-0.1c0,0,0,0-0.1,0c0,0-0.1,0-0.1,0c-0.1,0-0.1-0.1-0.2-0.1    c-0.1,0-0.2-0.1-0.3-0.1c-0.1,0-0.1,0-0.2,0c0,0-0.1,0-0.1,0c0,0,0,0,0,0c0,0,0,0,0,0c-0.1,0-0.3,0-0.4,0c0,0-0.1,0-0.1,0    c0,0,0,0-0.1,0c0,0,0,0-0.1,0c-0.1,0-0.2,0-0.2,0c0,0-0.1,0-0.1,0c0,0-0.1,0-0.1,0c0,0-0.1,0-0.1,0c0,0-0.1,0-0.1,0    c-0.1,0-0.2,0-0.3,0.1c-0.1,0-0.2,0.1-0.3,0.1c-0.3,0.1-0.7,0.3-1,0.5c-0.2,0.1-0.3,0.2-0.5,0.3c0,0,0,0-0.1,0l-0.1,0    c0,0-0.1,0.1-0.1,0.1c-0.1,0.1-0.2,0.1-0.2,0.2c-0.1,0.1-0.2,0.1-0.2,0.2L25,13L25,13c0,0,0,0-0.1,0.1c-0.1,0.2-0.3,0.3-0.4,0.5    c-0.3,0.3-0.5,0.7-0.8,1c-0.3,0.3-0.6,0.6-0.9,0.9c-0.3,0.3-0.6,0.6-0.9,0.8c-0.3,0.2-0.6,0.4-0.9,0.6c-0.3,0.2-0.6,0.3-0.8,0.4    c-0.1,0-0.1,0-0.2,0.1c-0.1,0-0.1,0-0.2,0.1c-0.1,0-0.2,0.1-0.3,0.1c-0.1,0-0.2,0-0.2,0.1c-0.1,0-0.1,0-0.2,0c-0.1,0-0.1,0-0.1,0    c3.3-0.6,5-3.8,6-4.7C27.1,10.9,29.1,10.8,30.5,11.7C30.5,11.6,30.5,11.6,30.5,11.7C30.5,11.6,30.5,11.6,30.5,11.7z"/>
	</g>
</mask>
<radialGradient id="XMLID_104_" cx="27.641" cy="11.467" r="9.7997" gradientUnits="userSpaceOnUse">
	<stop offset="0" style="stop-color:#FFFFFF"/>
	<stop offset="1" style="stop-color:#231F20"/>
</radialGradient>
<path id="XMLID_1454_" class="st92" d="M30.5,11.7c0,0-0.1,0-0.1-0.1c0,0,0,0-0.1,0c0,0-0.1,0-0.1,0c-0.1,0-0.1-0.1-0.2-0.1  c-0.1,0-0.2-0.1-0.3-0.1c-0.1,0-0.1,0-0.2,0c0,0-0.1,0-0.1,0c0,0,0,0,0,0c0,0,0,0,0,0c-0.1,0-0.3,0-0.4,0c0,0-0.1,0-0.1,0  c0,0,0,0-0.1,0c0,0,0,0-0.1,0c-0.1,0-0.2,0-0.2,0c0,0-0.1,0-0.1,0c0,0-0.1,0-0.1,0c0,0-0.1,0-0.1,0c0,0-0.1,0-0.1,0  c-0.1,0-0.2,0-0.3,0.1c-0.1,0-0.2,0.1-0.3,0.1c-0.3,0.1-0.7,0.3-1,0.5c-0.2,0.1-0.3,0.2-0.5,0.3c0,0,0,0-0.1,0l-0.1,0  c0,0-0.1,0.1-0.1,0.1c-0.1,0.1-0.2,0.1-0.2,0.2c-0.1,0.1-0.2,0.1-0.2,0.2L25,13L25,13c0,0,0,0-0.1,0.1c-0.1,0.2-0.3,0.3-0.4,0.5  c-0.3,0.3-0.5,0.7-0.8,1c-0.3,0.3-0.6,0.6-0.9,0.9c-0.3,0.3-0.6,0.6-0.9,0.8c-0.3,0.2-0.6,0.4-0.9,0.6c-0.3,0.2-0.6,0.3-0.8,0.4  c-0.1,0-0.1,0-0.2,0.1c-0.1,0-0.1,0-0.2,0.1c-0.1,0-0.2,0.1-0.3,0.1c-0.1,0-0.2,0-0.2,0.1c-0.1,0-0.1,0-0.2,0c-0.1,0-0.1,0-0.1,0  c3.3-0.6,5-3.8,6-4.7C27.1,10.9,29.1,10.8,30.5,11.7C30.5,11.6,30.5,11.6,30.5,11.7C30.5,11.6,30.5,11.6,30.5,11.7z"/>
<defs>
	<filter id="Adobe_OpacityMaskFilter_20_" filterUnits="userSpaceOnUse" x="17.2" y="13.7" width="13.1" height="4.2">
		<feFlood style="flood-color:white;flood-opacity:1" result="back"/>
		<feBlend in="SourceGraphic" in2="back" mode="normal"/>
	</filter>
</defs>
<mask maskUnits="userSpaceOnUse" x="17.2" y="13.7" width="13.1" height="4.2" id="XMLID_105_">
	<g id="XMLID_16_" class="st93">
		<defs>
			<filter id="Adobe_OpacityMaskFilter_21_" filterUnits="userSpaceOnUse" x="17.2" y="13.7" width="13.1" height="4.2">
				<feFlood style="flood-color:white;flood-opacity:1" result="back"/>
				<feBlend in="SourceGraphic" in2="back" mode="normal"/>
			</filter>
		</defs>
		<mask maskUnits="userSpaceOnUse" x="17.2" y="13.7" width="13.1" height="4.2" id="XMLID_105_">
			<g id="XMLID_158_" class="st94">
			</g>
		</mask>
		<radialGradient id="XMLID_106_" cx="25.8855" cy="14.3682" r="8.5904" gradientUnits="userSpaceOnUse">
			<stop offset="0" style="stop-color:#FFFFFF"/>
			<stop offset="1" style="stop-color:#000000"/>
		</radialGradient>
		<path id="XMLID_17_" class="st95" d="M30.3,15.1C30.3,15,30.3,15,30.3,15.1c0,0-0.1-0.1-0.1-0.1c-0.1-0.1-0.2-0.2-0.3-0.3    c-0.1-0.1-0.3-0.3-0.6-0.4c-0.1-0.1-0.3-0.1-0.4-0.2c-0.1-0.1-0.3-0.1-0.5-0.1c-0.2,0-0.3-0.1-0.5-0.1c-0.2,0-0.4,0-0.6,0    c-0.4,0.1-0.8,0.2-1.1,0.4c-0.4,0.2-0.7,0.5-1.1,0.7c-0.4,0.3-0.7,0.6-1.1,0.8c-0.4,0.3-0.7,0.6-1.1,0.8c-0.4,0.3-0.8,0.5-1.2,0.7    c-0.4,0.2-0.8,0.3-1.2,0.4c-0.2,0.1-0.4,0.1-0.6,0.1c-0.2,0-0.4,0.1-0.5,0.1c-0.3,0-0.7,0-0.9,0c-0.3,0-0.5-0.1-0.7-0.1    c-0.1,0-0.2,0-0.3-0.1c-0.1,0-0.1,0-0.2-0.1c-0.1,0-0.1,0-0.1,0c5.6,1.5,7.8-4.5,11-3.9C29.3,13.9,29.9,14.4,30.3,15.1z"/>
	</g>
</mask>
<radialGradient id="XMLID_107_" cx="25.8855" cy="14.3682" r="8.5904" gradientUnits="userSpaceOnUse">
	<stop offset="0" style="stop-color:#FFFFFF"/>
	<stop offset="1" style="stop-color:#231F20"/>
</radialGradient>
<path id="XMLID_1453_" class="st96" d="M30.3,15.1C30.3,15,30.3,15,30.3,15.1c0,0-0.1-0.1-0.1-0.1c-0.1-0.1-0.2-0.2-0.3-0.3  c-0.1-0.1-0.3-0.3-0.6-0.4c-0.1-0.1-0.3-0.1-0.4-0.2c-0.1-0.1-0.3-0.1-0.5-0.1c-0.2,0-0.3-0.1-0.5-0.1c-0.2,0-0.4,0-0.6,0  c-0.4,0.1-0.8,0.2-1.1,0.4c-0.4,0.2-0.7,0.5-1.1,0.7c-0.4,0.3-0.7,0.6-1.1,0.8c-0.4,0.3-0.7,0.6-1.1,0.8c-0.4,0.3-0.8,0.5-1.2,0.7  c-0.4,0.2-0.8,0.3-1.2,0.4c-0.2,0.1-0.4,0.1-0.6,0.1c-0.2,0-0.4,0.1-0.5,0.1c-0.3,0-0.7,0-0.9,0c-0.3,0-0.5-0.1-0.7-0.1  c-0.1,0-0.2,0-0.3-0.1c-0.1,0-0.1,0-0.2-0.1c-0.1,0-0.1,0-0.1,0c5.6,1.5,7.8-4.5,11-3.9C29.3,13.9,29.9,14.4,30.3,15.1z"/>
<polygon id="XMLID_1376_" class="st52" points="30.3,15.1 30.3,15.1 30.3,15.1 "/>
<defs>
	<filter id="Adobe_OpacityMaskFilter_22_" filterUnits="userSpaceOnUse" x="16" y="17" width="12.3" height="1.7">
		<feFlood style="flood-color:white;flood-opacity:1" result="back"/>
		<feBlend in="SourceGraphic" in2="back" mode="normal"/>
	</filter>
</defs>
<mask maskUnits="userSpaceOnUse" x="16" y="17" width="12.3" height="1.7" id="XMLID_108_">
	<g id="XMLID_9_" class="st97">
		<defs>
			<filter id="Adobe_OpacityMaskFilter_23_" filterUnits="userSpaceOnUse" x="16" y="17" width="12.3" height="1.7">
				<feFlood style="flood-color:white;flood-opacity:1" result="back"/>
				<feBlend in="SourceGraphic" in2="back" mode="normal"/>
			</filter>
		</defs>
		<mask maskUnits="userSpaceOnUse" x="16" y="17" width="12.3" height="1.7" id="XMLID_108_">
			<g id="XMLID_154_" class="st98">
			</g>
		</mask>
		<radialGradient id="XMLID_109_" cx="24.6289" cy="17.8238" r="11.9349" gradientUnits="userSpaceOnUse">
			<stop offset="0" style="stop-color:#FFFFFF"/>
			<stop offset="1" style="stop-color:#000000"/>
		</radialGradient>
		<path id="XMLID_10_" class="st99" d="M28.3,18.3c0,0-0.1,0-0.1-0.1c-0.1,0-0.2-0.1-0.4-0.2c-0.1,0-0.2-0.1-0.3-0.1    c-0.1,0-0.2-0.1-0.3-0.1c-0.1,0-0.2,0-0.4-0.1c-0.1,0-0.1,0-0.2,0c-0.1,0-0.1,0-0.2,0c-0.1,0-0.2,0-0.2,0c-0.1,0-0.2,0-0.2,0    c-0.2,0-0.3,0-0.5,0c-0.3,0-0.7,0.1-1.1,0.2c-0.4,0.1-0.7,0.2-1.1,0.3c-0.4,0.1-0.8,0.2-1.2,0.3c-0.4,0.1-0.8,0.2-1.2,0.2    c-0.4,0-0.8,0-1.2,0c-0.4,0-0.8-0.1-1.1-0.2c-0.1,0-0.2,0-0.2-0.1c-0.1,0-0.2-0.1-0.2-0.1c0,0-0.1,0-0.1,0l-0.1,0l-0.1,0    c-0.1,0-0.1-0.1-0.2-0.1c0,0-0.1,0-0.1,0c0,0-0.1,0-0.1-0.1c-0.1,0-0.1-0.1-0.2-0.1c-0.1-0.1-0.2-0.1-0.3-0.2    c-0.1,0-0.1-0.1-0.1-0.1c0,0-0.1-0.1-0.1-0.1c-0.1-0.1-0.2-0.1-0.2-0.2c-0.1-0.1-0.2-0.2-0.3-0.3c0,0-0.1-0.1-0.1-0.1    c4.2,3.7,7.7-0.3,11.5,0.9C27.8,18,28,18.1,28.3,18.3z"/>
	</g>
</mask>
<radialGradient id="XMLID_110_" cx="24.6289" cy="17.8238" r="11.9349" gradientUnits="userSpaceOnUse">
	<stop offset="0" style="stop-color:#FFFFFF"/>
	<stop offset="1" style="stop-color:#231F20"/>
</radialGradient>
<path id="XMLID_1375_" class="st100" d="M28.3,18.3c0,0-0.1,0-0.1-0.1c-0.1,0-0.2-0.1-0.4-0.2c-0.1,0-0.2-0.1-0.3-0.1  c-0.1,0-0.2-0.1-0.3-0.1c-0.1,0-0.2,0-0.4-0.1c-0.1,0-0.1,0-0.2,0c-0.1,0-0.1,0-0.2,0c-0.1,0-0.2,0-0.2,0c-0.1,0-0.2,0-0.2,0  c-0.2,0-0.3,0-0.5,0c-0.3,0-0.7,0.1-1.1,0.2c-0.4,0.1-0.7,0.2-1.1,0.3c-0.4,0.1-0.8,0.2-1.2,0.3c-0.4,0.1-0.8,0.2-1.2,0.2  c-0.4,0-0.8,0-1.2,0c-0.4,0-0.8-0.1-1.1-0.2c-0.1,0-0.2,0-0.2-0.1c-0.1,0-0.2-0.1-0.2-0.1c0,0-0.1,0-0.1,0l-0.1,0l-0.1,0  c-0.1,0-0.1-0.1-0.2-0.1c0,0-0.1,0-0.1,0c0,0-0.1,0-0.1-0.1c-0.1,0-0.1-0.1-0.2-0.1c-0.1-0.1-0.2-0.1-0.3-0.2  c-0.1,0-0.1-0.1-0.1-0.1c0,0-0.1-0.1-0.1-0.1c-0.1-0.1-0.2-0.1-0.2-0.2c-0.1-0.1-0.2-0.2-0.3-0.3c0,0-0.1-0.1-0.1-0.1  c4.2,3.7,7.7-0.3,11.5,0.9C27.8,18,28,18.1,28.3,18.3z"/>
<defs>
	<filter id="Adobe_OpacityMaskFilter_24_" filterUnits="userSpaceOnUse" x="15.2" y="15.9" width="11.1" height="6">
		<feFlood style="flood-color:white;flood-opacity:1" result="back"/>
		<feBlend in="SourceGraphic" in2="back" mode="normal"/>
	</filter>
</defs>
<mask maskUnits="userSpaceOnUse" x="15.2" y="15.9" width="11.1" height="6" id="XMLID_111_">
	<g id="XMLID_3_" class="st101">
		<defs>
			<filter id="Adobe_OpacityMaskFilter_25_" filterUnits="userSpaceOnUse" x="15.2" y="15.9" width="11.1" height="6">
				<feFlood style="flood-color:white;flood-opacity:1" result="back"/>
				<feBlend in="SourceGraphic" in2="back" mode="normal"/>
			</filter>
		</defs>
		<mask maskUnits="userSpaceOnUse" x="15.2" y="15.9" width="11.1" height="6" id="XMLID_111_">
			<g id="XMLID_150_" class="st102">
			</g>
		</mask>
		<radialGradient id="XMLID_112_" cx="21.7462" cy="20.6881" r="10.8991" gradientUnits="userSpaceOnUse">
			<stop offset="0" style="stop-color:#FFFFFF"/>
			<stop offset="1" style="stop-color:#000000"/>
		</radialGradient>
		<path id="XMLID_4_" class="st103" d="M26.3,21.9c-0.2-0.2-0.4-0.4-0.7-0.5c-0.2-0.1-0.5-0.2-0.8-0.3c-0.3-0.1-0.5-0.1-0.8-0.2    l-0.2,0l-0.2,0c-0.1,0-0.3,0-0.4,0c-0.3,0-0.6,0-0.8-0.1c-0.3,0-0.6-0.1-0.8-0.1c-0.3,0-0.6-0.1-0.8-0.1c-0.3-0.1-0.5-0.1-0.8-0.2    c-0.3-0.1-0.5-0.2-0.8-0.3c-0.3-0.1-0.5-0.2-0.8-0.4c-0.2-0.1-0.5-0.3-0.7-0.5c-0.2-0.2-0.4-0.4-0.6-0.6c-0.1,0-0.1-0.1-0.1-0.2    l-0.1-0.1l-0.1-0.1l-0.1-0.2l-0.1-0.2c0-0.1-0.1-0.1-0.1-0.2l-0.1-0.2L16,17.6L16,17.6l-0.1-0.1l-0.1-0.2c0-0.1-0.1-0.1-0.1-0.2    c-0.1-0.1-0.1-0.2-0.2-0.4c-0.1-0.1-0.1-0.3-0.2-0.4c-0.1-0.1-0.1-0.3-0.2-0.4l0,0l0,0c0,0,0,0,0,0c1.6,3.8,4.2,4.6,8.1,4.9    C24.9,21,25.8,21.4,26.3,21.9z"/>
	</g>
</mask>
<radialGradient id="XMLID_113_" cx="21.7462" cy="20.6881" r="10.8991" gradientUnits="userSpaceOnUse">
	<stop offset="0" style="stop-color:#FFFFFF"/>
	<stop offset="1" style="stop-color:#231F20"/>
</radialGradient>
<path id="XMLID_1371_" class="st104" d="M26.3,21.9c-0.2-0.2-0.4-0.4-0.7-0.5c-0.2-0.1-0.5-0.2-0.8-0.3c-0.3-0.1-0.5-0.1-0.8-0.2  l-0.2,0l-0.2,0c-0.1,0-0.3,0-0.4,0c-0.3,0-0.6,0-0.8-0.1c-0.3,0-0.6-0.1-0.8-0.1c-0.3,0-0.6-0.1-0.8-0.1c-0.3-0.1-0.5-0.1-0.8-0.2  c-0.3-0.1-0.5-0.2-0.8-0.3c-0.3-0.1-0.5-0.2-0.8-0.4c-0.2-0.1-0.5-0.3-0.7-0.5c-0.2-0.2-0.4-0.4-0.6-0.6c-0.1,0-0.1-0.1-0.1-0.2  l-0.1-0.1l-0.1-0.1l-0.1-0.2l-0.1-0.2c0-0.1-0.1-0.1-0.1-0.2l-0.1-0.2L16,17.6L16,17.6l-0.1-0.1l-0.1-0.2c0-0.1-0.1-0.1-0.1-0.2  c-0.1-0.1-0.1-0.2-0.2-0.4c-0.1-0.1-0.1-0.3-0.2-0.4c-0.1-0.1-0.1-0.3-0.2-0.4l0,0l0,0c0,0,0,0,0,0c1.6,3.8,4.2,4.6,8.1,4.9  C24.9,21,25.8,21.4,26.3,21.9z"/>
<path d="M130.3,28.6h-1c-0.6,0-1-0.4-1-1v-1c0-0.6,0.4-1,1-1h1c0.6,0,1,0.4,1,1v1C131.3,28.2,130.9,28.6,130.3,28.6z"/>
<g>
	<path d="M48.4,18.8c0.1,0.3,0.1,0.5-0.1,0.6c-0.2,0.2-0.5,0.3-0.9,0.3c-0.4,0-0.8-0.1-1.3-0.2c-0.5-0.1-0.9-0.4-1.3-0.8   c-0.3-0.4-0.5-0.8-0.7-1.2c-0.2-0.4-0.3-0.8-0.4-1.2c0-0.3,0-0.5-0.1-0.8c0-0.3,0-0.7,0.1-1c0.1-1.2,0.5-2.2,1.2-3.1   s1.6-1.7,2.6-2.3c1.1-0.6,2.2-1.2,3.6-1.6c1.3-0.4,2.7-0.8,4.1-1.1c1.4-0.3,2.7-0.5,4.1-0.7c1.3-0.2,2.6-0.3,3.7-0.5   c1-0.1,1.8-0.2,2.6-0.3s1.4-0.3,1.8-0.5c0.1,0.3,0.2,0.7,0.3,1.1c0,0.5,0.1,0.9,0,1.4s-0.1,0.9-0.2,1.2c-0.1,0.3-0.2,0.5-0.3,0.6   l-3,0.3c-1.2,0.1-2.4,0.2-3.6,0.4c-1.2,0.1-2.5,0.3-3.7,0.5c0.3,0.3,0.5,0.6,0.7,0.9c0.2,0.3,0.3,0.6,0.2,0.9   c-0.3,0.7-0.6,1.4-0.9,2.2c-0.3,0.8-0.6,1.6-0.9,2.4c0.5-0.1,1-0.2,1.6-0.3c0.5-0.1,1.1-0.2,1.6-0.3c0.6-0.1,1.1-0.2,1.7-0.3   s1.2-0.2,1.7-0.3c0.1,0,0.2,0.1,0.2,0.3c0,0.2,0,0.4,0,0.6c0,0.2,0,0.5-0.1,0.8c0,0.3-0.1,0.5-0.2,0.8c-0.1,0.2-0.1,0.4-0.2,0.6   c-0.1,0.2-0.2,0.3-0.2,0.3c-0.2,0-0.5,0.1-0.7,0.1c-0.3,0-0.5,0-0.8,0c-0.9,0.1-1.8,0.2-2.7,0.3c-1,0.1-1.9,0.3-2.9,0.5   c-0.3,1.1-0.7,2.3-0.9,3.5c-0.3,1.2-0.5,2.3-0.7,3.4c-0.2,1.1-0.3,2.1-0.4,3.1c-0.1,1-0.1,1.8-0.1,2.6c-0.1,0.4-0.2,0.7-0.5,0.7   c-0.3,0-0.6-0.1-0.8-0.3s-0.5-0.6-0.8-1c-0.2-0.4-0.3-0.9-0.3-1.5c-0.1-0.6-0.1-1.2-0.1-1.9s0.1-1.4,0.2-2.2   c0.1-0.8,0.2-1.6,0.4-2.4c0.1-0.8,0.3-1.7,0.5-2.5c-0.5,0.3-1,0.6-1.5,1c-0.4,0.4-0.8,0.8-1.2,1.3c-0.1,0.1-0.2,0.3-0.3,0.5   c-0.1,0.2-0.2,0.4-0.2,0.6c-0.1,0.2-0.1,0.5-0.1,0.7c0,0.3,0,0.5,0,0.8c0,0.2,0.1,0.4,0.2,0.6c0.1,0.2,0.2,0.4,0.4,0.6l0.1,0.2   c0.1,0.2,0.1,0.4-0.1,0.5c-0.1,0.1-0.3,0.2-0.5,0.2c-0.2,0-0.5,0-0.7-0.1c-0.3-0.1-0.4-0.2-0.6-0.3c-0.2-0.3-0.3-0.5-0.4-0.8   s-0.2-0.6-0.2-0.9c-0.1-0.4-0.1-0.8,0-1.2c0-0.4,0.1-0.8,0.2-1.2c0.1-0.4,0.2-0.7,0.3-1.1c0.1-0.3,0.3-0.6,0.4-0.8   c0.7-0.9,1.4-1.7,2.2-2.3s1.7-1.1,2.6-1.5c0.3-1.3,0.7-2.6,1.1-3.8c0.4-1.2,0.7-2.3,1.1-3.3c-0.8,0.2-1.5,0.3-2.2,0.5   c-0.5,0.2-1.1,0.4-1.8,0.8c-0.7,0.3-1.3,0.7-1.9,1.2s-1.1,1-1.5,1.5c-0.4,0.6-0.5,1.1-0.4,1.8c0.1,0.4,0.2,0.8,0.5,1.2   c0.3,0.4,0.7,0.8,1.3,1.3L48.4,18.8z"/>
	<path d="M72.5,19.4c0,0.1,0,0.2-0.1,0.2c-0.1,0.1-0.2,0.1-0.3,0.1c-0.1,0-0.3,0-0.4,0c-0.1,0-0.3,0-0.4-0.1   c0.2,0.1,0.5,0.3,0.7,0.5c0.3,0.2,0.5,0.4,0.7,0.6c0.2,0.2,0.3,0.4,0.4,0.7c0.1,0.2,0.2,0.5,0.1,0.7c0,0.1-0.1,0.2-0.1,0.3   c0,0.1-0.1,0.3-0.1,0.4c-0.1,0.3-0.1,0.6-0.2,0.9c-0.1,0.3-0.1,0.6-0.2,1c-0.1,0.3-0.1,0.6-0.1,0.9c0,0.3,0,0.5,0,0.7   c0,0,0,0.1,0,0.1h0.2c0.4-0.1,0.7-0.4,1-0.7c0.3-0.3,0.6-0.7,0.8-1.2c0.3-0.4,0.5-0.9,0.7-1.4c0.2-0.5,0.4-1,0.6-1.4   c0.1-0.2,0.2-0.4,0.2-0.6c0-0.1,0.2-0.1,0.3-0.1c0.2,0,0.3,0.1,0.5,0.2c0.2,0.1,0.3,0.2,0.5,0.4c0.1,0.1,0.2,0.3,0.1,0.4l-0.4,0.9   v0c-0.3,0.9-0.7,1.7-1.1,2.6c-0.4,0.9-0.9,1.6-1.6,2.3c-0.1,0.1-0.2,0.2-0.4,0.4c-0.1,0.1-0.3,0.3-0.5,0.4   c-0.2,0.1-0.4,0.2-0.7,0.3S72.4,29,72,29c-0.7-0.1-1.3-0.3-1.7-0.7c-0.4-0.4-0.7-1-0.9-1.7c-0.4,0.6-0.9,1.2-1.5,1.6   c-0.5,0.4-1.1,0.7-1.7,0.7c-0.6-0.1-1.1-0.2-1.5-0.5c-0.4-0.3-0.8-0.6-1.1-0.9c-0.3-0.4-0.5-0.7-0.7-1.1s-0.3-0.8-0.3-1.1   c0-0.3-0.1-0.6-0.1-0.8c0-0.6,0-1.2,0.2-1.8c0.1-0.7,0.3-1.3,0.6-2c0.3-0.7,0.6-1.3,1-1.9c0.4-0.6,0.8-1.2,1.3-1.6   c0.5-0.5,1-0.9,1.6-1.1c0.6-0.3,1.2-0.4,1.8-0.4c0.2,0,0.4,0,0.6,0c0.2,0,0.4,0.1,0.6,0.1c0.4,0.1,0.7,0.3,1,0.6   c0.3,0.3,0.5,0.6,0.7,0.9c0.2,0.3,0.3,0.7,0.4,1.1C72.4,18.7,72.5,19.1,72.5,19.4z M69.9,19.4c0.1-0.1,0.3-0.1,0.5,0   c0.2,0,0.5,0.1,0.7,0.2C71,19.6,71,19.5,71,19.4c0,0,0-0.1,0-0.2s0-0.1-0.1-0.2c0-0.1-0.1-0.3-0.1-0.5c-0.1-0.2-0.1-0.3-0.2-0.5   c-0.1-0.1-0.2-0.3-0.3-0.3s-0.3-0.1-0.5-0.2c-0.6,0-1.1,0.2-1.5,0.6c-0.5,0.4-0.8,0.9-1.2,1.6c-0.3,0.6-0.6,1.3-0.8,2   c-0.2,0.7-0.3,1.4-0.4,1.9c0,0.2,0,0.4,0,0.6c0,0.2,0,0.5,0.1,0.7c0,0.3,0.2,0.6,0.3,0.8c0.2,0.2,0.5,0.3,0.9,0.2   c0.2-0.1,0.4-0.2,0.7-0.5c0.3-0.3,0.5-0.6,0.8-1s0.5-0.8,0.7-1.2c0.2-0.4,0.4-0.8,0.6-1.1c0.1-0.5,0.1-0.9,0.2-1.3   c0.1-0.4,0.1-0.8,0-1.1L69.9,19.4z"/>
	<path d="M85.2,24.5c-0.3,0.5-0.5,1-0.9,1.6c-0.3,0.5-0.7,1-1.1,1.4s-0.9,0.8-1.4,1c-0.5,0.3-1.1,0.4-1.7,0.4c-0.4,0-0.7-0.1-1-0.2   c-0.3-0.1-0.5-0.3-0.7-0.6c-0.2-0.2-0.4-0.5-0.5-0.8s-0.2-0.6-0.3-1c-0.1-0.5-0.1-1,0-1.4c0.1-0.4,0.2-0.8,0.3-1.2   c0.1-0.4,0.3-0.8,0.5-1.1s0.4-0.8,0.6-1.1l0.3-0.6v0l0.4-0.8c0.1-0.2,0.2-0.3,0.3-0.4c0.1-0.1,0.4-0.3,0.8-0.4   c-0.2,0-0.3,0.1-0.5,0.1s-0.2,0-0.3,0.1c-0.2,0-0.4,0.1-0.5,0.1c-0.2,0-0.4,0.1-0.7,0h-0.2c-0.3,0.5-0.5,1-0.7,1.5   c-0.2,0.5-0.4,0.9-0.6,1.4l0,0c0,0.1-0.1,0.1-0.3,0.1c-0.2,0-0.3-0.1-0.5-0.2c-0.2-0.1-0.3-0.2-0.4-0.4S76,21.6,76,21.5v0l1.1-2.6   c-0.2-0.3-0.3-0.6-0.4-0.9c-0.1-0.5,0-0.9,0.1-1.2c0.1-0.4,0.3-0.8,0.5-1.3c0.1-0.2,0.1-0.4,0.2-0.6c0.1-0.2,0.1-0.5,0.2-0.9   c0.2,0.1,0.5,0.2,0.7,0.4c0.3,0.1,0.5,0.3,0.7,0.4c0.2,0.2,0.4,0.4,0.5,0.6c0.1,0.2,0.2,0.5,0.3,0.8c0,0.1,0,0.3,0,0.4   s0,0.3-0.1,0.5l-0.6,1c0,0.1,0,0.1,0.1,0c0.1-0.1,0.3-0.2,0.5-0.3c0.2-0.2,0.5-0.4,0.8-0.6c0.3-0.2,0.6-0.4,0.8-0.7   c0.3-0.2,0.5-0.4,0.7-0.6c0.2-0.2,0.3-0.3,0.4-0.4c0.1,0,0.2,0,0.4,0.1c0.2,0.1,0.3,0.2,0.5,0.3c0.2,0.1,0.3,0.2,0.4,0.3   c0.1,0.1,0.2,0.2,0.2,0.2c0.2,0.3,0.3,0.6,0.3,0.9c0,0.4-0.1,0.7-0.2,1.1c-0.1,0.4-0.3,0.9-0.6,1.3c-0.2,0.5-0.5,0.9-0.8,1.4   c-0.2,0.3-0.3,0.5-0.5,0.8s-0.3,0.5-0.4,0.8c-0.1,0.2-0.2,0.4-0.4,0.7c-0.1,0.3-0.3,0.5-0.4,0.8c-0.1,0.3-0.2,0.5-0.3,0.8   c-0.1,0.3-0.1,0.5-0.1,0.7C81,26,81,26,81.2,26c0.2,0,0.4,0,0.6-0.2c0.2-0.1,0.5-0.3,0.7-0.5s0.5-0.5,0.7-0.8s0.4-0.7,0.6-1h0   c0.2-0.5,0.4-0.9,0.6-1.4c0.2-0.5,0.3-0.9,0.5-1.2c0-0.1,0.2-0.1,0.3,0c0.2,0.1,0.3,0.1,0.5,0.3c0.2,0.1,0.3,0.3,0.4,0.4   c0.1,0.2,0.2,0.3,0.1,0.4v0L85.8,23L85.2,24.5L85.2,24.5z"/>
	<path d="M102.2,24.1c-0.2,0.4-0.4,0.9-0.7,1.4c-0.3,0.6-0.6,1.1-1,1.6c-0.4,0.5-0.8,1-1.2,1.3c-0.5,0.4-0.9,0.5-1.5,0.5   c-0.3,0-0.6-0.1-0.9-0.2c-0.3-0.1-0.6-0.3-0.9-0.5c-0.3-0.2-0.5-0.5-0.7-0.9C95.2,27,95,26.5,95,26c0-0.4-0.1-0.9,0-1.3   s0.1-0.9,0.1-1.4c0.1-0.5,0.2-1,0.3-1.6c0.1-0.6,0.3-1.2,0.4-1.9c0.1-0.3,0.1-0.6,0.2-0.8c0-0.3,0-0.5,0-0.6c0,0-0.1,0.1-0.2,0.3   c-0.1,0.1-0.3,0.4-0.6,0.7c-0.5,0.5-0.9,1-1.2,1.5c-0.4,0.5-0.7,1.1-1,1.7c-0.1,0.3-0.1,0.5-0.2,0.8s-0.1,0.6-0.1,0.8v0   c-0.1,0.7-0.2,1.4-0.2,2.1c0,0.7,0,1.4,0.1,2.1c0,0.1,0,0.2-0.2,0.2c-0.1,0-0.3,0-0.5,0c-0.2,0-0.4-0.1-0.6-0.2   c-0.2-0.1-0.4-0.2-0.6-0.3c-0.2-0.1-0.4-0.2-0.5-0.4c-0.1-0.1-0.2-0.3-0.3-0.4c-0.1-1.2-0.1-2.5,0-3.6c0.1-1.2,0.3-2.4,0.6-3.5   c0.1-0.4,0.1-0.7,0.2-1c0.1-0.3,0.1-0.5,0.2-0.6c-0.2,0.1-0.5,0.4-0.9,0.8c-0.5,0.5-0.9,1-1.2,1.6c-0.4,0.5-0.7,1.1-1.1,1.7   c-0.2,0.9-0.4,1.9-0.4,2.8c-0.1,1-0.1,1.9,0,2.9c0,0.2-0.1,0.2-0.4,0.2c-0.3,0-0.6-0.1-0.9-0.2c-0.3-0.1-0.6-0.3-0.9-0.5   c-0.3-0.2-0.4-0.4-0.5-0.6c-0.1-0.7-0.1-1.3-0.1-2c0-0.6,0.1-1.3,0.1-1.9s0.2-1.2,0.3-1.8c0.1-0.6,0.2-1.2,0.3-1.8   c0.1-0.7,0.2-1.4,0.4-2.1c0.1-0.7,0.2-1.3,0.3-2c0.1-0.1,0.4-0.1,0.6,0c0.3,0.1,0.6,0.2,0.9,0.4c0.3,0.2,0.6,0.4,0.8,0.7   c0.3,0.3,0.5,0.5,0.6,0.8c0.5-0.5,1-1,1.5-1.4c0.5-0.4,1.1-0.6,1.8-0.6c0.2,0,0.4,0.1,0.6,0.2s0.4,0.3,0.6,0.5s0.4,0.4,0.5,0.6   c0.2,0.2,0.3,0.5,0.4,0.7c0.5-0.5,1-1,1.5-1.4c0.5-0.4,1.1-0.6,1.8-0.6c0.2,0,0.4,0.1,0.7,0.3c0.3,0.2,0.5,0.4,0.8,0.7   c0.2,0.3,0.4,0.6,0.6,0.9c0.1,0.3,0.2,0.6,0.1,0.8v0c-0.1,0.8-0.3,1.5-0.4,2.2c-0.1,0.6-0.3,1.2-0.4,1.7c-0.1,0.4-0.2,0.8-0.3,1.2   s-0.1,0.7-0.2,1c0,0.3-0.1,0.7-0.1,1s0,0.7,0,1.1c0-0.1,0-0.1,0.1-0.2c0.4-0.2,0.8-0.6,1.3-1.1s0.9-1.3,1.3-2.2   c0.1-0.3,0.2-0.5,0.3-0.8c0.1-0.3,0.2-0.6,0.3-0.9l0.2-0.5c0.1-0.2,0.3-0.3,0.4-0.3s0.4,0,0.6,0.1c0.2,0.1,0.3,0.3,0.4,0.5   c0.1,0.2,0.1,0.4,0,0.7c-0.1,0.4-0.3,0.7-0.4,1.1C102.5,23.3,102.3,23.7,102.2,24.1L102.2,24.1z"/>
	<path d="M109.7,19.6c-0.5,1.3-1.2,2.5-2.1,3.3c-0.9,0.9-2,1.6-3.2,2c0.1,0.4,0.2,0.8,0.5,1.1c0.2,0.4,0.5,0.6,0.9,0.6l0,0   c0.3,0.1,0.7,0.1,1-0.1c0.4-0.1,0.7-0.3,1.1-0.6c0.4-0.3,0.8-0.7,1.1-1.2s0.7-1.1,1-1.7c0.2-0.4,0.3-0.7,0.5-1.1   c0.1-0.4,0.3-0.7,0.4-1.1c0.1-0.2,0.3-0.3,0.5-0.3c0.2,0,0.4,0,0.6,0.1c0.2,0.1,0.3,0.3,0.4,0.5c0.1,0.2,0.1,0.4,0,0.7l-0.3,0.8   c-0.3,0.7-0.6,1.4-1,2.2c-0.4,0.8-0.9,1.6-1.5,2.4c-0.4,0.4-0.8,0.7-1.2,1c-0.4,0.2-0.8,0.4-1.2,0.5c-0.4,0.1-0.7,0.2-1,0.2   c-0.3,0-0.5,0-0.7,0c-1.2,0-2.1-0.3-2.8-1s-1.2-1.6-1.4-2.7c-0.2-1-0.2-2,0-3s0.6-2,1.1-3.1c0.2-0.4,0.5-0.8,0.8-1.2   s0.8-0.8,1.2-1.2c0.5-0.4,1-0.6,1.5-0.9c0.5-0.2,1.1-0.3,1.7-0.3c0.6,0,1.2,0.2,1.6,0.6c0.4,0.4,0.7,0.9,0.8,1.6c0,0.3,0,0.6,0,0.9   C109.9,19,109.8,19.3,109.7,19.6L109.7,19.6z M107.9,17.8c-0.5,0.1-0.9,0.3-1.3,0.7c-0.4,0.4-0.8,0.8-1.1,1.3   c-0.3,0.5-0.6,1-0.7,1.6c-0.2,0.6-0.3,1.1-0.4,1.6c0.9-0.4,1.7-1,2.4-1.8c0.7-0.7,1.2-1.6,1.5-2.6v0c0-0.1,0.1-0.2,0.1-0.4   c0-0.1,0-0.2,0-0.3C108.2,17.8,108.1,17.8,107.9,17.8z"/>
	<path d="M119.9,24.5c-0.3,0.5-0.5,1-0.9,1.6c-0.3,0.5-0.7,1-1.1,1.4s-0.9,0.8-1.4,1c-0.5,0.3-1.1,0.4-1.7,0.4c-0.4,0-0.7-0.1-1-0.2   c-0.3-0.1-0.5-0.3-0.7-0.6c-0.2-0.2-0.4-0.5-0.5-0.8s-0.2-0.6-0.3-1c-0.1-0.5-0.1-1,0-1.4c0.1-0.4,0.2-0.8,0.3-1.2   c0.1-0.4,0.3-0.8,0.5-1.1s0.4-0.8,0.6-1.1l0.3-0.6v0l0.4-0.8c0.1-0.2,0.2-0.3,0.3-0.4c0.1-0.1,0.4-0.3,0.8-0.4   c-0.2,0-0.3,0.1-0.5,0.1s-0.2,0-0.3,0.1c-0.2,0-0.4,0.1-0.5,0.1c-0.2,0-0.4,0.1-0.7,0h-0.2c-0.3,0.5-0.5,1-0.7,1.5   c-0.2,0.5-0.4,0.9-0.6,1.4l0,0c0,0.1-0.1,0.1-0.3,0.1c-0.2,0-0.3-0.1-0.5-0.2c-0.2-0.1-0.3-0.2-0.4-0.4s-0.2-0.3-0.1-0.4v0l1.1-2.6   c-0.2-0.3-0.3-0.6-0.4-0.9c-0.1-0.5,0-0.9,0.1-1.2c0.1-0.4,0.3-0.8,0.5-1.3c0.1-0.2,0.1-0.4,0.2-0.6c0.1-0.2,0.1-0.5,0.2-0.9   c0.2,0.1,0.5,0.2,0.7,0.4c0.3,0.1,0.5,0.3,0.7,0.4c0.2,0.2,0.4,0.4,0.5,0.6c0.1,0.2,0.2,0.5,0.3,0.8c0,0.1,0,0.3,0,0.4   s0,0.3-0.1,0.5l-0.6,1c0,0.1,0,0.1,0.1,0c0.1-0.1,0.3-0.2,0.5-0.3c0.2-0.2,0.5-0.4,0.8-0.6c0.3-0.2,0.6-0.4,0.8-0.7   c0.3-0.2,0.5-0.4,0.7-0.6c0.2-0.2,0.3-0.3,0.4-0.4c0.1,0,0.2,0,0.4,0.1c0.2,0.1,0.3,0.2,0.5,0.3c0.2,0.1,0.3,0.2,0.4,0.3   c0.1,0.1,0.2,0.2,0.2,0.2c0.2,0.3,0.3,0.6,0.3,0.9c0,0.4-0.1,0.7-0.2,1.1c-0.1,0.4-0.3,0.9-0.6,1.3c-0.2,0.5-0.5,0.9-0.8,1.4   c-0.2,0.3-0.3,0.5-0.5,0.8s-0.3,0.5-0.4,0.8c-0.1,0.2-0.2,0.4-0.4,0.7c-0.1,0.3-0.3,0.5-0.4,0.8c-0.1,0.3-0.2,0.5-0.3,0.8   c-0.1,0.3-0.1,0.5-0.1,0.7c0,0.1,0.1,0.1,0.3,0.1c0.2,0,0.4,0,0.6-0.2c0.2-0.1,0.5-0.3,0.7-0.5s0.5-0.5,0.7-0.8s0.4-0.7,0.6-1h0   c0.2-0.5,0.4-0.9,0.6-1.4c0.2-0.5,0.3-0.9,0.5-1.2c0-0.1,0.2-0.1,0.3,0c0.2,0.1,0.3,0.1,0.5,0.3c0.2,0.1,0.3,0.3,0.4,0.4   c0.1,0.2,0.2,0.3,0.1,0.4v0l-0.4,1.1L119.9,24.5L119.9,24.5z"/>
	<path d="M118,25.6c-0.1-0.6,0-1.2,0.1-1.8c0.2-0.6,0.5-1.1,0.8-1.4l0.4-0.8c0.3-0.7,0.6-1.4,0.9-2.1c0.3-0.7,0.6-1.4,1-2l0.4-0.7   c0.2-0.4,0.4-0.8,0.7-1.3c0.3-0.5,0.7-1,1.2-1.6c0.3,0.1,0.6,0.3,0.9,0.5c0.4,0.2,0.7,0.5,1,0.7c0.3,0.3,0.5,0.5,0.6,0.8   c0.1,0.3,0.1,0.5-0.2,0.8l0,0c-0.2,0.3-0.4,0.4-0.4,0.6s-0.2,0.3-0.3,0.5l-0.2,0.4c-0.2,0.5-0.3,1.1-0.3,1.7c0,0.6,0,1.2,0.1,1.7   c0,0.3,0.1,0.6,0.2,0.9c0.1,0.3,0.1,0.6,0.2,1l0.3,1.3c0.1,0.7,0.1,1.3,0,1.8c-0.1,0.6-0.3,1-0.6,1.4c-0.3,0.4-0.7,0.7-1.2,0.9   s-1,0.3-1.6,0.3c-0.6,0-1.2-0.2-1.6-0.4c-0.5-0.2-0.9-0.5-1.2-0.8s-0.6-0.7-0.8-1.1C118.2,26.5,118.1,26,118,25.6z M121.7,21.5   c0-0.1,0-0.2-0.1-0.4c0-0.1,0-0.2,0-0.4l-0.5,1.2l0,0c0.1,0.1,0.2,0.3,0.3,0.6s0.2,0.6,0.3,0.9c0.1,0.3,0.2,0.6,0.2,0.9   c0,0.3,0,0.5-0.1,0.6c-0.2-0.2-0.4-0.4-0.6-0.4c-0.2,0-0.4,0-0.6,0.1c-0.2,0.1-0.3,0.2-0.5,0.4c-0.1,0.2-0.2,0.4-0.1,0.6   c0,0.1,0,0.2,0.1,0.3c0.1,0.1,0.1,0.2,0.2,0.3c0.2,0.2,0.4,0.4,0.6,0.5c0.3,0.1,0.5,0.2,0.7,0.2c0.2,0,0.4,0,0.6-0.1   c0.1-0.1,0.3-0.2,0.3-0.4c0.1-0.2,0.1-0.4,0.1-0.6s0-0.5,0-0.8c0-0.3-0.1-0.5-0.2-0.8c-0.1-0.3-0.1-0.6-0.2-0.9   c-0.1-0.3-0.2-0.6-0.2-1C121.8,22.2,121.7,21.8,121.7,21.5z"/>
</g>
</svg>